<?xml version="1.0" encoding="UTF-8" standalone="no"?>
<!DOCTYPE svg PUBLIC "-//W3C//DTD SVG 1.1//EN" "http://www.w3.org/Graphics/SVG/1.1/DTD/svg11.dtd">
<svg width="100%" height="100%" viewBox="0 0 2800 2800" version="1.1" xmlns="http://www.w3.org/2000/svg" xmlns:xlink="http://www.w3.org/1999/xlink" xml:space="preserve" xmlns:serif="http://www.serif.com/" style="fill-rule:evenodd;clip-rule:evenodd;stroke-linejoin:round;stroke-miterlimit:1.41421;">
    <g transform="matrix(1,0,0,1,-447.271,-390.984)">
        <g transform="matrix(13.2015,0,0,13.2015,-5344.8,-20111.6)">
            <circle cx="544.791" cy="1659.09" r="106.048" style="fill:rgb(143,23,55);"/>
        </g>
        <g transform="matrix(1,0,0,1,71.9549,-378.043)">
            <g transform="matrix(4.16667,0,0,4.16667,2362.23,2917.29)">
                <path d="M0,-276.689L-73.738,-206.543C-76.521,-203.772 -77.948,-201.735 -77.948,-196.007L-77.948,0.591C-77.948,2.897 -76.063,4.786 -73.738,4.786L2.43,4.786C4.751,4.786 6.626,2.897 6.626,0.591L6.626,-274.919C6.626,-277.239 4.812,-281.475 0,-276.689" style="fill:white;fill-rule:nonzero;"/>
            </g>
            <g transform="matrix(4.16667,0,0,4.16667,1477.1,2917.16)">
                <path d="M0,-185.269L-73.747,-115.131C-76.521,-112.358 -77.952,-110.324 -77.952,-104.605L-77.952,0.622C-77.952,2.919 -76.063,4.808 -73.747,4.808L2.426,4.808C4.75,4.808 6.626,2.919 6.626,0.622L6.626,-183.508C6.626,-185.832 4.794,-190.077 0,-185.269" style="fill:white;fill-rule:nonzero;"/>
            </g>
            <g transform="matrix(4.16667,0,0,4.16667,2501.89,2344.92)">
                <path d="M0,-224.387C0.026,-224.946 -0.172,-225.544 -0.626,-225.985C-1.013,-226.364 -1.51,-226.539 -1.99,-226.584L-2.396,-226.557L-2.999,-226.522L-59.462,-213.785L-60.488,-213.679C-60.892,-213.6 -61.275,-213.399 -61.588,-213.103C-62.42,-212.262 -62.42,-210.906 -61.588,-210.065L-60.95,-209.427L-48.055,-196.536L-175.998,-68.593L-235.089,-127.689C-235.758,-128.362 -236.82,-128.362 -237.494,-127.689L-253.527,-111.65C-253.54,-111.65 -253.54,-111.633 -253.54,-111.633L-348.267,-16.924C-348.922,-16.255 -348.922,-15.172 -348.267,-14.515L-332.21,1.531C-331.554,2.197 -330.485,2.197 -329.824,1.531L-236.278,-91.992L-193.397,-49.107C-193.353,-49.041 -193.331,-48.97 -193.261,-48.904L-177.221,-32.884C-176.557,-32.21 -175.487,-32.21 -174.818,-32.884L-29.611,-178.089L-16.07,-164.555C-15.238,-163.715 -13.882,-163.715 -13.058,-164.555C-12.662,-164.952 -12.469,-165.436 -12.442,-165.947L-12.433,-166.127L-0.031,-223.766L0,-224.387Z" style="fill:white;fill-rule:nonzero;"/>
            </g>
            <g transform="matrix(4.16667,0,0,4.16667,1921.41,2915.37)">
                <path d="M0,-172.528L-35.679,-136.555C-36.357,-135.997 -37.347,-136.014 -37.977,-136.643L-70.3,-169.592C-76.217,-175.487 -77.494,-170.707 -77.494,-168.39L-77.494,1.043C-77.494,3.35 -75.636,5.239 -73.32,5.239L2.871,5.239C5.178,5.239 7.062,3.35 7.062,1.043L7.062,-171.199C7.062,-173.514 5.234,-177.767 0,-172.528" style="fill:white;fill-rule:nonzero;"/>
            </g>
        </g>
    </g>
</svg>
