<?xml version="1.0" encoding="UTF-8" standalone="no"?>
<!DOCTYPE svg PUBLIC "-//W3C//DTD SVG 1.1//EN" "http://www.w3.org/Graphics/SVG/1.1/DTD/svg11.dtd">
<svg width="100%" height="100%" viewBox="0 0 2800 2800" version="1.1" xmlns="http://www.w3.org/2000/svg" xmlns:xlink="http://www.w3.org/1999/xlink" xml:space="preserve" xmlns:serif="http://www.serif.com/" style="fill-rule:evenodd;clip-rule:evenodd;stroke-linejoin:round;stroke-miterlimit:1.41421;">
    <g transform="matrix(6.53931,0,0,6.53931,-2751.89,-10843.6)">
        <circle cx="634.913" cy="1872.31" r="214.09" style="fill:rgb(249,157,37);"/>
    </g>
    <g transform="matrix(1,0,0,1,-410.068,-836.424)">
        <g transform="matrix(4.16667,0,0,4.16667,797.302,2260.55)">
            <path d="M0,76.324L109.127,76.324C110.602,76.324 111.803,75.117 111.803,73.638C111.803,72.951 111.526,72.335 111.1,71.859L110.949,71.701L56.656,1.454L56.128,0.872C55.636,0.335 54.936,0 54.151,0C53.478,0 52.875,0.282 52.395,0.687L52.069,1.066L51.559,1.637L-1.409,71.146L-2.224,72.141C-2.514,72.563 -2.682,73.084 -2.682,73.638C-2.682,75.117 -1.479,76.324 0,76.324" style="fill:white;fill-rule:nonzero;"/>
        </g>
        <g transform="matrix(4.16667,0,0,4.16667,1250.62,2998.72)">
            <path d="M0,-90.933L-109.342,-90.933C-110.821,-90.933 -112.019,-89.735 -112.019,-88.255L-112.019,-2.687C-112.019,-1.207 -110.821,0 -109.342,0L-74.147,0L-74.147,-53.835C-74.147,-55.324 -72.955,-56.513 -71.471,-56.513L-38.805,-56.513C-37.324,-56.513 -36.127,-55.324 -36.127,-53.835L-36.127,0L0,0C1.476,0 2.677,-1.207 2.677,-2.687L2.677,-88.255C2.677,-89.735 1.476,-90.933 0,-90.933" style="fill:white;fill-rule:nonzero;"/>
        </g>
        <g transform="matrix(4.16667,0,0,4.16667,2784.39,2857.32)">
            <path d="M0,-44.369C0,-42.943 -1.18,-41.789 -2.65,-41.789L-34.975,-41.789C-36.444,-41.789 -37.624,-42.943 -37.624,-44.369L-37.624,-64.031C-37.624,-65.449 -36.444,-66.602 -34.975,-66.602L-2.65,-66.602C-1.18,-66.602 0,-65.449 0,-64.031L0,-44.369ZM0,-8.057C0,-6.622 -1.18,-5.469 -2.65,-5.469L-34.975,-5.469C-36.444,-5.469 -37.624,-6.622 -37.624,-8.057L-37.624,-27.702C-37.624,-29.137 -36.444,-30.281 -34.975,-30.281L-2.65,-30.281C-1.18,-30.281 0,-29.137 0,-27.702L0,-8.057ZM-49.414,-44.369C-49.414,-42.943 -50.594,-41.789 -52.056,-41.789L-84.389,-41.789C-85.858,-41.789 -87.048,-42.943 -87.048,-44.369L-87.048,-64.031C-87.048,-65.449 -85.858,-66.602 -84.389,-66.602L-52.056,-66.602C-50.594,-66.602 -49.414,-65.449 -49.414,-64.031L-49.414,-44.369ZM-49.414,-8.057C-49.414,-6.622 -50.594,-5.469 -52.056,-5.469L-84.389,-5.469C-85.858,-5.469 -87.048,-6.622 -87.048,-8.057L-87.048,-27.702C-87.048,-29.137 -85.858,-30.281 -84.389,-30.281L-52.056,-30.281C-50.594,-30.281 -49.414,-29.137 -49.414,-27.702L-49.414,-8.057ZM9.8,-79.396L-98.424,-79.396C-99.886,-79.396 -101.065,-78.261 -101.065,-76.825L-101.065,32.455C-101.065,33.873 -99.886,35.027 -98.424,35.027L9.8,35.027C11.271,35.027 12.45,33.873 12.45,32.455L12.45,-76.825C12.45,-78.261 11.271,-79.396 9.8,-79.396" style="fill:white;fill-rule:nonzero;"/>
        </g>
        <g transform="matrix(4.16667,0,0,4.16667,1712.65,2675.7)">
            <path d="M0,-211.803C0,-211.046 -0.624,-210.421 -1.399,-210.421L-25.64,-210.421C-26.415,-210.421 -27.031,-211.046 -27.031,-211.803L-27.031,-238.836C-27.031,-239.61 -26.415,-240.227 -25.64,-240.227L-1.399,-240.227C-0.624,-240.227 0,-239.61 0,-238.836L0,-211.803ZM0,-149.754C0,-148.988 -0.624,-148.363 -1.399,-148.363L-25.64,-148.363C-26.415,-148.363 -27.031,-148.988 -27.031,-149.754L-27.031,-176.785C-27.031,-177.551 -26.415,-178.158 -25.64,-178.158L-1.399,-178.158C-0.624,-178.158 0,-177.551 0,-176.785L0,-149.754ZM0,-87.686C0,-86.92 -0.624,-86.295 -1.399,-86.295L-25.64,-86.295C-26.415,-86.295 -27.031,-86.92 -27.031,-87.686L-27.031,-114.717C-27.031,-115.484 -26.415,-116.109 -25.64,-116.109L-1.399,-116.109C-0.624,-116.109 0,-115.484 0,-114.717L0,-87.686ZM0,-25.635C0,-24.853 -0.624,-24.245 -1.399,-24.245L-25.64,-24.245C-26.415,-24.245 -27.031,-24.853 -27.031,-25.635L-27.031,-52.65C-27.031,-53.434 -26.415,-54.041 -25.64,-54.041L-1.399,-54.041C-0.624,-54.041 0,-53.434 0,-52.65L0,-25.635ZM0,36.431C0,37.198 -0.624,37.823 -1.399,37.823L-25.64,37.823C-26.415,37.823 -27.031,37.198 -27.031,36.431L-27.031,9.408C-27.031,8.642 -26.415,8.026 -25.64,8.026L-1.399,8.026C-0.624,8.026 0,8.642 0,9.408L0,36.431ZM-47.556,-211.803C-47.556,-211.046 -48.182,-210.421 -48.947,-210.421L-73.196,-210.421C-73.963,-210.421 -74.588,-211.046 -74.588,-211.803L-74.588,-238.836C-74.588,-239.61 -73.963,-240.227 -73.196,-240.227L-48.947,-240.227C-48.182,-240.227 -47.556,-239.61 -47.556,-238.836L-47.556,-211.803ZM-47.556,-149.754C-47.556,-148.988 -48.182,-148.363 -48.947,-148.363L-73.196,-148.363C-73.963,-148.363 -74.588,-148.988 -74.588,-149.754L-74.588,-176.785C-74.588,-177.551 -73.963,-178.158 -73.196,-178.158L-48.947,-178.158C-48.182,-178.158 -47.556,-177.551 -47.556,-176.785L-47.556,-149.754ZM-47.556,-87.686C-47.556,-86.92 -48.182,-86.295 -48.947,-86.295L-73.196,-86.295C-73.963,-86.295 -74.588,-86.92 -74.588,-87.686L-74.588,-114.717C-74.588,-115.484 -73.963,-116.109 -73.196,-116.109L-48.947,-116.109C-48.182,-116.109 -47.556,-115.484 -47.556,-114.717L-47.556,-87.686ZM-47.556,-25.635C-47.556,-24.853 -48.182,-24.245 -48.947,-24.245L-73.196,-24.245C-73.963,-24.245 -74.588,-24.853 -74.588,-25.635L-74.588,-52.65C-74.588,-53.434 -73.963,-54.041 -73.196,-54.041L-48.947,-54.041C-48.182,-54.041 -47.556,-53.434 -47.556,-52.65L-47.556,-25.635ZM-47.556,36.431C-47.556,37.198 -48.182,37.823 -48.947,37.823L-73.196,37.823C-73.963,37.823 -74.588,37.198 -74.588,36.431L-74.588,9.408C-74.588,8.642 -73.963,8.026 -73.196,8.026L-48.947,8.026C-48.182,8.026 -47.556,8.642 -47.556,9.408L-47.556,36.431ZM15.445,-289.469L-90.464,-289.469C-91.882,-289.469 -93.052,-288.316 -93.052,-286.871L-93.052,75.078C-93.052,76.504 -91.882,77.666 -90.464,77.666L15.445,77.666C16.863,77.666 18.051,76.504 18.051,75.078L18.051,-286.871C18.051,-288.316 16.863,-289.469 15.445,-289.469" style="fill:white;fill-rule:nonzero;"/>
        </g>
        <g transform="matrix(4.16667,0,0,4.16667,2835.75,2389.95)">
            <path d="M0,21.776C0,22.991 -0.969,23.959 -2.174,23.959L-111.103,23.959C-112.301,23.959 -113.278,22.991 -113.278,21.776L-113.278,-0.008C-113.278,-1.205 -112.301,-2.183 -111.103,-2.183L-2.174,-2.183C-0.969,-2.183 0,-1.205 0,-0.008L0,21.776Z" style="fill:white;fill-rule:nonzero;"/>
        </g>
        <g transform="matrix(4.16667,0,0,4.16667,2259.86,2532.3)">
            <path d="M0,-76.112C0,-74.677 -1.172,-73.523 -2.589,-73.523L-34.147,-73.523C-35.591,-73.523 -36.753,-74.677 -36.753,-76.112L-36.753,-95.87C-36.753,-97.314 -35.591,-98.467 -34.147,-98.467L-2.589,-98.467C-1.172,-98.467 0,-97.314 0,-95.87L0,-76.112ZM0,-39.597C0,-38.171 -1.172,-37.017 -2.589,-37.017L-34.147,-37.017C-35.591,-37.017 -36.753,-38.171 -36.753,-39.597L-36.753,-59.355C-36.753,-60.792 -35.591,-61.944 -34.147,-61.944L-2.589,-61.944C-1.172,-61.944 0,-60.792 0,-59.355L0,-39.597ZM0,-3.082C0,-1.665 -1.172,-0.502 -2.589,-0.502L-34.147,-0.502C-35.591,-0.502 -36.753,-1.665 -36.753,-3.082L-36.753,-22.849C-36.753,-24.285 -35.591,-25.438 -34.147,-25.438L-2.589,-25.438C-1.172,-25.438 0,-24.285 0,-22.849L0,-3.082ZM0,33.424C0,34.86 -1.172,36.013 -2.589,36.013L-34.147,36.013C-35.591,36.013 -36.753,34.86 -36.753,33.424L-36.753,13.665C-36.753,12.222 -35.591,11.076 -34.147,11.076L-2.589,11.076C-1.172,11.076 0,12.222 0,13.665L0,33.424ZM0,69.931C0,71.366 -1.172,72.519 -2.589,72.519L-34.147,72.519C-35.591,72.519 -36.753,71.366 -36.753,69.931L-36.753,50.171C-36.753,48.745 -35.591,47.591 -34.147,47.591L-2.589,47.591C-1.172,47.591 0,48.745 0,50.171L0,69.931ZM-48.165,-83.086L-48.165,-39.561C-48.165,-38.127 -49.336,-36.973 -50.754,-36.973L-82.311,-36.973C-83.755,-36.973 -84.918,-38.127 -84.918,-39.561L-84.918,-44.818L-84.918,-45.038C-84.904,-45.383 -84.838,-45.708 -84.719,-46.007C-84.667,-46.112 -84.658,-46.157 -84.561,-46.306C-84.5,-46.429 -84.411,-46.544 -84.332,-46.649C-84.253,-46.773 -84.134,-46.931 -84.036,-47.073C-80.004,-52.848 -61.795,-75.276 -54.148,-84.653L-53.382,-85.578C-52.827,-86.247 -51.99,-86.678 -51.053,-86.678C-49.604,-86.678 -48.446,-85.622 -48.165,-84.257L-48.165,-83.086ZM-48.253,-3.082C-48.253,-1.665 -49.406,-0.502 -50.842,-0.502L-82.408,-0.502C-83.843,-0.502 -84.996,-1.665 -84.996,-3.082L-84.996,-22.849C-84.996,-24.285 -83.843,-25.438 -82.408,-25.438L-50.842,-25.438C-49.406,-25.438 -48.253,-24.285 -48.253,-22.849L-48.253,-3.082ZM-48.253,33.424C-48.253,34.86 -49.406,36.013 -50.842,36.013L-82.408,36.013C-83.843,36.013 -84.996,34.86 -84.996,33.424L-84.996,13.665C-84.996,12.222 -83.843,11.076 -82.408,11.076L-50.842,11.076C-49.406,11.076 -48.253,12.222 -48.253,13.665L-48.253,33.424ZM-48.253,69.931C-48.253,71.366 -49.406,72.519 -50.842,72.519L-82.408,72.519C-83.843,72.519 -84.996,71.366 -84.996,69.931L-84.996,50.171C-84.996,48.745 -83.843,47.591 -82.408,47.591L-50.842,47.591C-49.406,47.591 -48.253,48.745 -48.253,50.171L-48.253,69.931ZM-31.783,-114.995L-31.039,-115.928C-23.915,-125.069 -11.914,-139.843 -6.062,-147.019L-5.297,-147.935C-4.742,-148.605 -3.905,-149.037 -2.968,-149.037C-1.519,-149.037 -0.361,-147.989 -0.08,-146.615L-0.08,-113.208C-0.08,-111.596 -1.36,-110.302 -2.954,-110.232C-3.003,-110.232 -3.042,-110.205 -3.087,-110.205C-3.131,-110.205 -3.17,-110.232 -3.219,-110.232L-27.939,-110.232L-29.229,-110.232C-29.278,-110.232 -29.317,-110.205 -29.361,-110.205C-29.405,-110.205 -29.444,-110.232 -29.493,-110.232C-31.087,-110.302 -32.368,-111.596 -32.368,-113.208C-32.368,-113.877 -32.153,-114.494 -31.783,-114.995M12.04,-186.705C11.689,-187.867 10.658,-188.73 9.382,-188.73C8.81,-188.73 8.311,-188.518 7.867,-188.228C7.802,-188.184 7.734,-188.149 7.669,-188.096L6.774,-186.969L-97.315,-54.926L-97.795,-54.284C-98.332,-53.756 -98.676,-53.034 -98.698,-52.223L-98.698,110.038C-98.698,111.464 -97.535,112.618 -96.101,112.618L9.702,112.618C11.139,112.618 12.292,111.464 12.292,110.038L12.292,-185.621C12.292,-186.009 12.19,-186.379 12.04,-186.705" style="fill:white;fill-rule:nonzero;"/>
        </g>
    </g>
</svg>
