<?xml version="1.0" encoding="UTF-8" standalone="no"?>
<!DOCTYPE svg PUBLIC "-//W3C//DTD SVG 1.1//EN" "http://www.w3.org/Graphics/SVG/1.1/DTD/svg11.dtd">
<svg width="100%" height="100%" viewBox="0 0 2800 2800" version="1.1" xmlns="http://www.w3.org/2000/svg" xmlns:xlink="http://www.w3.org/1999/xlink" xml:space="preserve" xmlns:serif="http://www.serif.com/" style="fill-rule:evenodd;clip-rule:evenodd;stroke-linejoin:round;stroke-miterlimit:1.41421;">
    <g transform="matrix(5.47641,0,0,5.47641,-2803.04,-10575.7)">
        <circle cx="767.481" cy="2186.79" r="255.642" style="fill:rgb(243,109,36);"/>
    </g>
    <g transform="matrix(4.16667,0,0,4.16667,2118.58,876.765)">
        <path d="M0,250.891L-77.419,295.572L-77.419,206.199L0,161.499L0,250.891ZM-255.751,295.572L-255.751,212.99L-184.23,254.288L-255.751,295.572ZM-267.513,295.572L-344.92,250.891L-344.92,161.499L-267.513,206.199L-267.513,295.572ZM-184.23,48.351L-255.751,89.652L-255.751,7.061L-184.23,48.351ZM-89.183,89.649L-160.694,48.351L-89.183,7.061L-89.183,89.649ZM-160.694,151.312L-83.301,106.634L-5.886,151.309L-83.301,196.007L-160.694,151.312ZM-178.344,141.122L-249.864,99.839L-178.344,58.54L-178.344,141.122ZM-95.069,99.841L-166.58,141.12L-166.58,58.54L-95.069,99.841ZM-178.344,244.098L-249.868,202.8L-178.344,161.499L-178.344,244.098ZM8.823,146.214L-77.419,96.442L-77.419,-3.129C-77.419,-5.231 -78.537,-7.172 -80.36,-8.225L-169.521,-59.704C-171.344,-60.752 -173.58,-60.752 -175.403,-59.704L-264.573,-8.225C-266.396,-7.172 -267.513,-5.231 -267.513,-3.129L-267.513,96.442L-353.743,146.214C-355.565,147.266 -356.684,149.207 -356.684,151.309L-356.684,254.288C-356.684,256.39 -355.565,258.331 -353.743,259.384L-264.573,310.855C-263.661,311.378 -262.649,311.643 -261.631,311.643C-260.615,311.643 -259.603,311.378 -258.691,310.855L-172.462,261.081L-86.242,310.855C-85.331,311.378 -84.318,311.643 -83.301,311.643C-82.284,311.643 -81.271,311.38 -80.36,310.855L8.823,259.384C10.646,258.334 11.764,256.39 11.764,254.288L11.764,151.309C11.764,149.207 10.646,147.263 8.823,146.214" style="fill:white;fill-rule:nonzero;"/>
    </g>
</svg>
