<?xml version="1.0" encoding="UTF-8" standalone="no"?>
<!DOCTYPE svg PUBLIC "-//W3C//DTD SVG 1.1//EN" "http://www.w3.org/Graphics/SVG/1.1/DTD/svg11.dtd">
<svg width="100%" height="100%" viewBox="0 0 2800 2800" version="1.1" xmlns="http://www.w3.org/2000/svg" xmlns:xlink="http://www.w3.org/1999/xlink" xml:space="preserve" xmlns:serif="http://www.serif.com/" style="fill-rule:evenodd;clip-rule:evenodd;stroke-linejoin:round;stroke-miterlimit:1.41421;">
    <g transform="matrix(1,0,0,1,-414.781,-770.728)">
        <g transform="matrix(9.192,0,0,9.192,-3782.86,-15296.9)">
            <circle cx="608.968" cy="1900.31" r="152.306" style="fill:rgb(1,85,138);"/>
        </g>
        <g transform="matrix(1,0,0,1,52.9007,-115.892)">
            <g transform="matrix(4.16667,0,0,4.16667,2283.88,1756.52)">
                <path d="M0,-33.003C0,-33.003 -7.043,-23.649 -4.995,-14.538C-2.934,-5.421 7.457,0 7.457,0C7.457,0 14.503,-9.354 12.448,-18.465C10.395,-27.586 0,-33.003 0,-33.003" style="fill:white;fill-rule:nonzero;"/>
            </g>
            <g transform="matrix(4.16667,0,0,4.16667,2236.06,1704.06)">
                <path d="M0,33.002C0,33.002 7.046,23.642 4.991,14.527C2.93,5.408 -7.458,0 -7.458,0C-7.458,0 -14.507,9.345 -12.46,18.463C-10.394,27.574 0,33.002 0,33.002" style="fill:white;fill-rule:nonzero;"/>
            </g>
            <g transform="matrix(4.16667,0,0,4.16667,2356.67,1788.49)">
                <path d="M0,2.72C0,2.72 7.438,10.222 15.908,9.468C24.378,8.717 30.655,0 30.655,0C30.655,0 23.228,-7.502 14.751,-6.751C6.281,-5.997 0,2.72 0,2.72" style="fill:white;fill-rule:nonzero;"/>
            </g>
            <g transform="matrix(4.16667,0,0,4.16667,2407.45,1688.88)">
                <path d="M0,-13.44C-6.891,-6.447 -5.919,5.927 -5.919,5.927C-5.919,5.927 6.229,6.979 13.134,-0.005C20.024,-6.992 19.053,-19.366 19.053,-19.366C19.053,-19.366 6.896,-20.419 0,-13.44" style="fill:white;fill-rule:nonzero;"/>
            </g>
            <g transform="matrix(4.16667,0,0,4.16667,2344.09,1848.6)">
                <path d="M0,16.101C8.439,17.101 16.375,9.853 16.375,9.853C16.375,9.853 10.627,0.99 2.194,-0.008C-6.253,-1 -14.188,6.248 -14.188,6.248C-14.188,6.248 -8.44,15.106 0,16.101" style="fill:white;fill-rule:nonzero;"/>
            </g>
            <g transform="matrix(4.16667,0,0,4.16667,2375.5,2555.4)">
                <path d="M0,-17.849L-63.085,-17.849C-68.02,-17.849 -72.021,-13.866 -72.021,-8.93C-72.021,-4.001 -68.02,0 -63.085,0L0,0C4.929,0 8.922,-4.001 8.922,-8.93C8.922,-13.866 4.929,-17.849 0,-17.849" style="fill:white;fill-rule:nonzero;"/>
            </g>
            <g transform="matrix(4.16667,0,0,4.16667,2375.5,2965.29)">
                <path d="M0,-17.848L-63.085,-17.848C-68.02,-17.848 -72.021,-13.862 -72.021,-8.926C-72.021,-4.001 -68.02,0 -63.085,0L0,0C4.929,0 8.922,-4.001 8.922,-8.926C8.922,-13.862 4.929,-17.848 0,-17.848" style="fill:white;fill-rule:nonzero;"/>
            </g>
            <g transform="matrix(4.16667,0,0,4.16667,1193.36,2386.05)">
                <path d="M0,1.129C-1.484,0.669 -2.953,0.267 -4.38,0C-4.38,0 -2.763,0.503 0,1.129" style="fill:white;fill-rule:nonzero;"/>
            </g>
            <g transform="matrix(4.16667,0,0,4.16667,1619.37,2038.6)">
                <path d="M0,123.129C4.157,123.2 8.329,123.075 12.509,122.792L12.509,155.751L0,155.465L0,123.129ZM179.146,130.262L120.689,130.262C117.886,130.262 115.609,132.542 115.609,135.341L115.609,153.044L77.447,157.238L21.698,155.962L21.698,121.909C29.104,120.962 36.52,119.486 43.881,117.409C97.547,102.267 109.25,68.84 108.081,38.142C106.914,6.876 116.919,-5.265 131.296,-10.664C135.411,-12.21 139.483,-13.187 143.21,-13.821C143.37,-6.142 144.928,2.785 148.361,13.424C149.636,13.353 150.904,13.245 152.166,13.108C148.539,2.227 146.992,-6.724 146.907,-14.356C154.334,-15.234 159.634,-14.738 159.634,-14.738C159.634,-14.738 154.613,-17.434 147.523,-23.364C149.934,-38.17 158.752,-47.261 167.84,-56.555C172.836,-61.674 177.997,-66.957 182.061,-73.254L178.895,-75.297C175.05,-69.313 169.999,-64.172 165.138,-59.191C156.274,-50.125 147.33,-40.86 144.3,-26.162C141.419,-28.762 138.304,-31.836 135.114,-35.414C121.88,-50.251 104.845,-39.352 80.552,-16.732C56.244,5.875 25.685,6.65 -4.168,-23.891C-43.55,-64.209 -77.902,-63.978 -101.461,-61.691C-85.346,-54.827 -79.709,-39.768 -71.551,-1.491C-63.003,38.671 -41.443,56.842 -11.951,59.351C-25.623,61.565 -29.169,63.461 -51.145,78.642C-68.311,90.483 -92.454,86.74 -102.243,84.517C-84.273,90.118 -62.988,108.97 -43.943,115.529C-32.854,119.345 -21.163,121.705 -9.188,122.654L-9.188,155.254L-114.939,152.973L-114.939,175.716L77.447,171.448L115.609,175.649L115.609,193.338C115.609,196.138 117.886,198.426 120.689,198.426L179.146,198.426C181.954,198.426 184.235,196.138 184.235,193.338L184.235,135.341C184.235,132.542 181.954,130.262 179.146,130.262" style="fill:white;fill-rule:nonzero;"/>
            </g>
            <g transform="matrix(4.16667,0,0,4.16667,1117.71,2689.59)">
                <path d="M0,15.719C0,20.513 -3.345,24.404 -7.469,24.404L-11.963,24.404C-16.078,24.404 -19.435,20.513 -19.435,15.719L-19.435,-0.001C-19.435,-4.803 -16.078,-8.685 -11.963,-8.685L-7.469,-8.685C-3.345,-8.685 0,-4.803 0,-0.001L0,15.719Z" style="fill:white;fill-rule:nonzero;"/>
            </g>
        </g>
    </g>
</svg>
