<?xml version="1.0" encoding="UTF-8" standalone="no"?>
<!DOCTYPE svg PUBLIC "-//W3C//DTD SVG 1.1//EN" "http://www.w3.org/Graphics/SVG/1.1/DTD/svg11.dtd">
<svg width="100%" height="100%" viewBox="0 0 2800 2800" version="1.1" xmlns="http://www.w3.org/2000/svg" xmlns:xlink="http://www.w3.org/1999/xlink" xml:space="preserve" xmlns:serif="http://www.serif.com/" style="fill-rule:evenodd;clip-rule:evenodd;stroke-linejoin:round;stroke-miterlimit:1.41421;">
    <g transform="matrix(1,0,0,1,-368.297,-733.409)">
        <g transform="matrix(11.4412,0,0,11.4412,-4498.14,-19940.1)">
            <circle cx="547.709" cy="1929.31" r="122.365" style="fill:rgb(0,125,187);"/>
        </g>
        <g transform="matrix(1,0,0,1,-14.9791,-36.1928)">
            <g transform="matrix(4.16667,0,0,4.16667,2161.42,2450.42)">
                <path d="M0,19.02C-13.331,19.02 -24.135,8.201 -24.135,-5.123C-24.135,-18.448 -13.331,-29.238 0,-29.238C13.362,-29.238 24.162,-18.448 24.162,-5.123C24.162,8.201 13.362,19.02 0,19.02M104.817,7.772C95.685,-4.564 36.709,-79.755 -45.976,-79.755C-117.778,-79.755 -194.59,-14.63 -194.59,-14.63C-194.59,-14.63 -223.444,-73.687 -282.465,-79.361C-282.813,-79.361 -283.183,-79.439 -283.575,-79.439L-283.94,-79.439C-285.172,-79.371 -286.326,-78.173 -286.194,-77.103C-286.027,-76.069 -285.269,-74.944 -285.269,-74.944C-277.662,-62.313 -258.247,-26.379 -258.247,9.52C-258.247,45.536 -277.776,81.566 -285.313,94.136L-285.824,94.937C-286.044,95.315 -286.194,95.694 -286.194,96.183C-286.194,97.428 -285.226,98.397 -284.015,98.507L-283.376,98.455C-283.178,98.455 -282.967,98.455 -282.756,98.397C-223.55,92.88 -194.59,33.644 -194.59,33.644C-194.59,33.644 -117.778,98.775 -45.976,98.775C36.709,98.775 95.685,23.58 104.817,11.272C105.068,10.936 105.271,10.644 105.451,10.424C105.557,10.135 105.644,9.866 105.644,9.52C105.644,9.196 105.557,8.871 105.451,8.62C105.271,8.369 105.068,8.081 104.817,7.772" style="fill:white;fill-rule:nonzero;"/>
            </g>
            <g transform="matrix(4.16667,0,0,4.16667,1328.05,1904.34)">
                <path d="M0,-16.095C0.189,-16.364 0.366,-16.562 0.63,-16.748C1.018,-16.991 1.449,-17.194 1.933,-17.194C2.549,-17.194 3.135,-16.943 3.549,-16.533C3.571,-16.493 3.619,-16.46 3.654,-16.432C48.729,26.537 96.016,-8.292 105.856,-16.432L106.82,-17.352C107.097,-17.462 107.396,-17.501 107.714,-17.501C108.057,-17.501 108.382,-17.462 108.665,-17.352L109.629,-16.432C119.459,-8.292 166.73,26.537 211.821,-16.432C211.831,-16.46 211.87,-16.493 211.906,-16.533C212.328,-16.943 212.878,-17.194 213.503,-17.194C214.001,-17.194 214.449,-16.991 214.811,-16.748C215.093,-16.562 215.277,-16.364 215.48,-16.095C224.215,-7.499 261.967,25.008 301.92,-9.706C302.339,-10.132 302.621,-10.689 302.621,-11.373L302.621,-27.874C302.621,-29.189 301.564,-30.236 300.265,-30.236C300.093,-30.236 299.935,-30.17 299.754,-30.137C299.384,-29.958 298.997,-29.751 298.556,-29.538C286.291,-23.383 248.2,-8.793 213.648,-41.448C213.327,-41.756 212.988,-42.064 212.649,-42.396C212.328,-42.574 212.024,-42.632 211.637,-42.632C211.394,-42.632 211.139,-42.574 210.923,-42.453C210.404,-42.324 209.999,-41.995 209.722,-41.569C199.428,-33.728 152.145,-1.712 110.038,-40.99L109.422,-41.606C108.986,-42.027 108.382,-42.266 107.714,-42.266C107.097,-42.266 106.48,-42.027 106.067,-41.606L105.416,-40.99C63.336,-1.712 16.008,-33.728 5.724,-41.569C5.455,-41.995 5.055,-42.324 4.557,-42.453C4.314,-42.574 4.06,-42.632 3.8,-42.632C3.46,-42.632 3.135,-42.574 2.818,-42.396C2.492,-42.064 2.145,-41.756 1.792,-41.448C-32.764,-8.793 -70.82,-23.383 -83.103,-29.538C-83.534,-29.751 -83.939,-29.958 -84.314,-30.137C-84.499,-30.17 -84.618,-30.236 -84.768,-30.236C-86.079,-30.236 -87.145,-29.189 -87.145,-27.874L-87.145,-11.373C-87.145,-10.689 -86.885,-10.132 -86.458,-9.706C-46.54,25.008 -8.744,-7.499 0,-16.095" style="fill:white;fill-rule:nonzero;"/>
            </g>
            <g transform="matrix(4.16667,0,0,4.16667,976.726,1713.57)">
                <path d="M0,-44.245C-0.181,-44.285 -0.304,-44.347 -0.454,-44.347C-1.761,-44.347 -2.827,-43.279 -2.827,-41.949L-2.827,-25.493C-2.827,-24.803 -2.567,-24.198 -2.136,-23.788C37.778,10.893 75.57,-21.602 84.318,-30.189C84.499,-30.45 84.684,-30.7 84.944,-30.859C85.335,-31.109 85.762,-31.288 86.25,-31.288C86.867,-31.288 87.448,-31.051 87.857,-30.652C87.889,-30.608 87.937,-30.571 87.972,-30.551C133.059,12.478 180.333,-22.374 190.17,-30.551L191.138,-31.436C191.415,-31.565 191.714,-31.614 192.036,-31.614C192.371,-31.614 192.705,-31.565 192.974,-31.436L193.947,-30.551C203.777,-22.374 251.053,12.478 296.135,-30.551C296.144,-30.571 296.201,-30.608 296.224,-30.652C296.646,-31.051 297.201,-31.288 297.826,-31.288C298.314,-31.288 298.767,-31.109 299.133,-30.859C299.406,-30.7 299.595,-30.45 299.798,-30.189C308.537,-21.602 346.289,10.893 386.238,-23.788C386.652,-24.198 386.925,-24.803 386.925,-25.493L386.925,-41.949C386.925,-43.279 385.89,-44.347 384.583,-44.347C384.411,-44.347 384.252,-44.285 384.072,-44.245C383.702,-44.034 383.319,-43.836 382.874,-43.625C370.6,-37.474 332.526,-22.849 297.966,-55.547C297.641,-55.85 297.302,-56.154 296.962,-56.507C296.646,-56.637 296.342,-56.723 295.955,-56.723C295.712,-56.723 295.453,-56.654 295.241,-56.612C294.726,-56.405 294.317,-56.077 294.04,-55.679C283.737,-47.827 236.462,-15.822 194.361,-55.096L193.744,-55.696C193.304,-56.086 192.705,-56.405 192.036,-56.405C191.415,-56.405 190.798,-56.086 190.389,-55.696L189.733,-55.096C147.654,-15.822 100.326,-47.827 90.042,-55.679C89.772,-56.077 89.376,-56.405 88.871,-56.612C88.627,-56.654 88.386,-56.723 88.118,-56.723C87.782,-56.723 87.448,-56.637 87.127,-56.507C86.819,-56.154 86.453,-55.85 86.114,-55.547C51.559,-22.849 13.498,-37.474 1.215,-43.625C0.784,-43.836 0.374,-44.034 0,-44.245" style="fill:white;fill-rule:nonzero;"/>
            </g>
        </g>
    </g>
</svg>
