<?xml version="1.0" encoding="UTF-8" standalone="no"?>
<!DOCTYPE svg PUBLIC "-//W3C//DTD SVG 1.1//EN" "http://www.w3.org/Graphics/SVG/1.1/DTD/svg11.dtd">
<svg width="100%" height="100%" viewBox="0 0 2800 2800" version="1.1" xmlns="http://www.w3.org/2000/svg" xmlns:xlink="http://www.w3.org/1999/xlink" xml:space="preserve" xmlns:serif="http://www.serif.com/" style="fill-rule:evenodd;clip-rule:evenodd;stroke-linejoin:round;stroke-miterlimit:1.41421;">
    <g transform="matrix(1,0,0,1,-223.169,-304.729)">
        <g transform="matrix(10.2444,0,0,10.2444,-2325.29,-16620.4)">
            <circle cx="385.426" cy="1788.8" r="136.66" style="fill:rgb(253,183,19);"/>
        </g>
        <g transform="matrix(1,0,0,1,11.0054,-298.633)">
            <g transform="matrix(4.16667,0,0,4.16667,1612.13,1780.2)">
                <path d="M0,108.958C-30.541,108.958 -55.3,84.203 -55.3,53.657C-55.3,28.831 -38.958,7.835 -16.435,0.835L-16.435,21.426C-28.159,27.413 -36.202,39.582 -36.202,53.657C-36.202,73.653 -20,89.859 0,89.859C20.001,89.859 36.203,73.653 36.203,53.657C36.203,39.543 28.119,27.352 16.342,21.378L16.342,0.809C38.91,7.778 55.31,28.795 55.31,53.657C55.31,84.203 30.55,108.958 0,108.958M-7.89,-9.851C-7.89,-13.39 -4.337,-17.286 0.027,-17.286C4.381,-17.286 7.903,-13.39 7.903,-9.851L7.903,26.656C7.903,30.179 4.381,34.034 0.027,34.034C-4.337,34.034 -7.89,30.179 -7.89,26.656L-7.89,-9.851ZM-0.018,-51.854C-58.735,-51.854 -106.335,-4.251 -106.335,54.472C-106.335,113.22 -58.735,160.812 -0.018,160.812C58.7,160.812 106.3,113.22 106.3,54.472C106.3,-4.251 58.7,-51.854 -0.018,-51.854" style="fill:white;fill-rule:nonzero;"/>
            </g>
            <g transform="matrix(4.16667,0,0,4.16667,1103.51,2003.44)">
                <path d="M0,-0.034C0,-4.855 -4.271,-8.761 -8.171,-8.761L-54.733,-8.761C-58.66,-8.761 -62.97,-4.855 -62.97,-0.034C-62.97,4.8 -58.66,8.727 -54.733,8.727L-8.171,8.727C-4.271,8.727 0,4.8 0,-0.034" style="fill:white;fill-rule:nonzero;"/>
            </g>
            <g transform="matrix(4.16667,0,0,4.16667,2383.19,2003.44)">
                <path d="M0,-0.034C0,-4.855 -4.271,-8.761 -8.172,-8.761L-54.733,-8.761C-58.656,-8.761 -62.966,-4.855 -62.966,-0.034C-62.966,4.8 -58.656,8.727 -54.733,8.727L-8.172,8.727C-4.271,8.727 0,4.8 0,-0.034" style="fill:white;fill-rule:nonzero;"/>
            </g>
            <g transform="matrix(4.16667,0,0,4.16667,1612.25,2512.01)">
                <path d="M0,62.966C4.812,62.966 8.721,58.695 8.721,54.795L8.721,8.237C8.721,4.315 4.812,0 0,0C-4.83,0 -8.766,4.315 -8.766,8.237L-8.766,54.795C-8.766,58.695 -4.83,62.966 0,62.966" style="fill:white;fill-rule:nonzero;"/>
            </g>
            <g transform="matrix(4.16667,0,0,4.16667,2281.38,2256.17)">
                <path d="M0,31.226C2.391,27.048 0.625,21.532 -2.755,19.595L-43.167,-3.532C-46.574,-5.482 -52.259,-4.231 -54.649,-0.045C-57.048,4.142 -55.261,9.699 -51.854,11.644L-11.441,34.771C-8.057,36.708 -2.404,35.422 0,31.226" style="fill:white;fill-rule:nonzero;"/>
            </g>
            <g transform="matrix(4.16667,0,0,4.16667,1229.26,2444.82)">
                <path d="M0,54.662C4.179,57.053 9.69,55.287 11.627,51.901L34.754,11.495C36.705,8.087 35.455,2.399 31.271,0.009C27.085,-2.391 21.524,-0.599 19.579,2.804L-3.548,43.215C-5.485,46.597 -4.196,52.263 0,54.662" style="fill:white;fill-rule:nonzero;"/>
            </g>
            <g transform="matrix(4.16667,0,0,4.16667,1996.57,2444.3)">
                <path d="M0,54.58C4.179,52.177 5.437,46.527 3.496,43.151L-19.714,2.784C-21.679,-0.619 -27.208,-2.407 -31.39,-0.004C-35.581,2.4 -36.836,8.098 -34.868,11.505L-11.662,51.868C-9.721,55.245 -4.191,56.987 0,54.58" style="fill:white;fill-rule:nonzero;"/>
            </g>
            <g transform="matrix(4.16667,0,0,4.16667,943.826,2256.94)">
                <path d="M0,31.403C2.398,35.577 8.047,36.836 11.428,34.89L51.787,11.68C55.195,9.725 56.991,4.191 54.578,0.013C52.179,-4.178 46.478,-5.433 43.079,-3.478L2.716,19.732C-0.666,21.674 -2.409,27.213 0,31.403" style="fill:white;fill-rule:nonzero;"/>
            </g>
            <g transform="matrix(4.16667,0,0,4.16667,1612.25,1232.35)">
                <path d="M0,62.965C4.812,62.965 8.721,58.694 8.721,54.798L8.721,8.232C8.721,4.305 4.812,0 0,0C-4.83,0 -8.766,4.305 -8.766,8.232L-8.766,54.798C-8.766,58.694 -4.83,62.965 0,62.965" style="fill:white;fill-rule:nonzero;"/>
            </g>
            <g transform="matrix(4.16667,0,0,4.16667,1170.72,1620.51)">
                <path d="M0,31.233C2.4,27.046 0.635,21.538 -2.755,19.601L-43.167,-3.526C-46.575,-5.48 -52.253,-4.23 -54.649,-0.047C-57.048,4.148 -55.256,9.695 -51.849,11.65L-11.438,34.777C-8.056,36.713 -2.399,35.428 0,31.233" style="fill:white;fill-rule:nonzero;"/>
            </g>
            <g transform="matrix(4.16667,0,0,4.16667,1864.9,1334.15)">
                <path d="M0,54.669C4.182,57.059 9.686,55.294 11.627,51.913L34.754,11.501C36.708,8.089 35.458,2.41 31.276,0.015C27.084,-2.39 21.529,-0.593 19.578,2.815L-3.549,43.222C-5.486,46.612 -4.2,52.269 0,54.669" style="fill:white;fill-rule:nonzero;"/>
            </g>
            <g transform="matrix(4.16667,0,0,4.16667,1358.66,1334.97)">
                <path d="M0,54.579C4.178,52.175 5.437,46.527 3.491,43.145L-19.719,2.779C-21.683,-0.625 -27.208,-2.408 -31.39,-0.004C-35.586,2.4 -36.836,8.097 -34.873,11.5L-11.667,51.858C-9.717,55.24 -4.196,56.987 0,54.579" style="fill:white;fill-rule:nonzero;"/>
            </g>
            <g transform="matrix(4.16667,0,0,4.16667,2053.16,1619.01)">
                <path d="M0,31.403C2.4,35.577 8.048,36.836 11.43,34.894L51.788,11.683C55.195,9.724 56.992,4.191 54.588,0.012C52.175,-4.174 46.488,-5.433 43.08,-3.474L2.717,19.736C-0.665,21.678 -2.412,27.216 0,31.403" style="fill:white;fill-rule:nonzero;"/>
            </g>
        </g>
    </g>
</svg>
