<?xml version="1.0" encoding="UTF-8" standalone="no"?>
<!DOCTYPE svg PUBLIC "-//W3C//DTD SVG 1.1//EN" "http://www.w3.org/Graphics/SVG/1.1/DTD/svg11.dtd">
<svg width="100%" height="100%" viewBox="0 0 2800 2800" version="1.1" xmlns="http://www.w3.org/2000/svg" xmlns:xlink="http://www.w3.org/1999/xlink" xml:space="preserve" xmlns:serif="http://www.serif.com/" style="fill-rule:evenodd;clip-rule:evenodd;stroke-linejoin:round;stroke-miterlimit:1.41421;">
    <g transform="matrix(1,0,0,1,-375.962,-779.379)">
        <g transform="matrix(11.4943,0,0,11.4943,-6010.61,-16661.9)">
            <circle cx="677.431" cy="1639.19" r="121.8" style="fill:rgb(72,119,61);"/>
        </g>
        <g transform="matrix(4.16667,0,0,4.16667,2233.5,2080.97)">
            <path d="M0,47.236C-3.002,46.411 -15.551,29.014 -5.595,17.59C-3.942,15.713 -8.922,10.173 -7.558,10.066C-2.12,9.652 0.768,13.029 2.188,17.896C2.295,20.038 2.376,22.201 2.374,24.385C2.363,32.218 1.533,39.857 0,47.236M-30.746,103.718C-31.868,103.403 -33.017,103.038 -34.262,102.416C-40.368,99.297 -39.644,104.268 -42.645,103.168C-45.667,102.043 -39.244,95.079 -48.282,100.963C-57.276,106.834 -54.84,100.046 -58.75,90.077C-62.698,80.099 -54.208,68.732 -47.129,66.167C-37.399,62.659 -31.358,61.951 -26.795,60.83C-13.341,57.49 -10.486,49.511 -8.054,54.373C-7.592,55.283 -7.149,56.147 -6.745,56.963C-5.963,58.415 -5.065,61.357 -5.024,64.258C-10.755,79.217 -19.583,92.641 -30.746,103.718M-109.754,136.203C-120.695,136.188 -131.241,134.581 -141.219,131.652C-142.652,130.48 -143.468,128.524 -142.567,126.178C-139.09,117.149 -128.77,113.628 -120.624,112.854C-102.465,111.11 -78.622,124.698 -74.824,122.514C-71.013,120.337 -63.325,110.367 -52.064,110.799C-44.378,111.105 -44.437,112.395 -41.857,113.373C-60.707,127.712 -84.229,136.238 -109.754,136.203M-124.879,63.206C-126.423,65.724 -130.658,84.549 -133.481,82.352C-136.319,80.151 -132.307,60.514 -131.486,59.023C-127.055,50.917 -117.489,51.331 -124.879,63.206M-79.124,41.038C-81.337,43.003 -86.997,42.274 -89.825,40.061C-92.636,37.869 -88.029,34.241 -86.348,34.108C-82.579,33.777 -76.929,39.047 -79.124,41.038M-29.709,41.299C-30.915,40.845 -31.979,39.702 -32.891,36.951C-33.799,34.2 -31.485,32.636 -29.229,33.745C-26.932,34.914 -23.956,38.345 -23.958,40.177C-23.961,42.01 -28.477,41.784 -29.709,41.299M-24.955,44.745C-21.19,44.447 -15.545,49.67 -17.758,51.67C-19.961,53.651 -25.604,52.916 -28.433,50.697C-31.247,48.502 -26.646,44.882 -24.955,44.745M-145.123,89.228C-147.309,97.784 -149.854,100.867 -152.024,103.562C-154.189,106.291 -162.211,109.762 -167.295,109.382C-172.389,108.994 -173.079,95.403 -173.069,88.416C-173.066,86.001 -176.492,93.154 -178.255,78.606C-179.383,69.291 -185.375,79.567 -185.785,73.354C-186.203,67.157 -189.19,68.388 -192.329,64.509C-195.445,60.635 -199.347,64.879 -203.717,66.83C-208.061,68.754 -206.275,69.774 -212.448,67.822C-212.607,67.77 -212.687,67.724 -212.84,67.669C-218.488,54.266 -221.598,39.535 -221.577,24.08C-221.572,20.299 -221.364,16.583 -221.008,12.908C-220.795,12.533 -220.575,12.174 -220.314,11.867C-214.384,4.868 -214.513,3.228 -214.513,3.228L-207.959,0.967C-207.959,0.967 -197.501,2.593 -189.625,5.571C-183.138,8.015 -172.923,13.534 -166.976,11.119C-162.677,9.352 -159.31,7.007 -159.71,3.428C-160.188,-1.061 -163.723,-2.133 -168.006,0.888C-169.587,2 -172.94,-5.886 -175.579,-5.489C-178.216,-5.1 -172.329,3.775 -174.565,4.148C-176.812,4.528 -181.306,-5.105 -182.075,-6.663C-182.83,-8.213 -186.308,-12.08 -189.437,-9.138C-196.049,-2.872 -206.773,-3.271 -208.929,-1.66C-215.491,3.235 -217.212,-3.285 -217.062,-7.255C-216.796,-8.162 -216.526,-9.077 -216.235,-9.975C-214.092,-12.332 -206.408,-13.103 -203.773,-11.34C-200.879,-9.402 -198.797,-11.831 -197.664,-13.005C-196.515,-14.151 -196.917,-16.011 -197.636,-17.555C-198.369,-19.113 -196.185,-20.247 -194.687,-20.647C-193.176,-21.045 -188.183,-24.53 -186.192,-25.694C-184.178,-26.846 -173.826,-28.089 -169.189,-25.762C-164.557,-23.421 -160.297,-25.322 -158.012,-28.004C-155.146,-31.394 -151.501,-33.978 -149.884,-34.759C-148.259,-35.516 -153.87,-40.768 -158.496,-35.057C-163.135,-29.376 -165.491,-28.853 -167.666,-28.856C-169.841,-28.859 -182.762,-32.101 -184.351,-36.189C-185.921,-40.268 -180.299,-43.318 -175.524,-45.625C-170.752,-47.892 -157.699,-47.843 -154.36,-48.594C-147.574,-50.073 -138.896,-53.469 -134.533,-50.49C-130.187,-47.561 -152.788,-42.446 -145.367,-38.425C-142.728,-36.971 -130.771,-45.278 -126.675,-47.401C-117.039,-52.354 -136.003,-54.02 -133.529,-64.112C-130.73,-75.519 -156.782,-71.141 -169.766,-70.188C-152.339,-81.32 -131.651,-87.781 -109.449,-87.75C-56.627,-87.679 -12.432,-51.027 -0.7,-1.805C-0.623,0.628 -1.005,2.381 -1.253,3.376C-2.27,7.409 -9.931,10.868 -14.365,4.367C-15.494,2.727 -20.291,-1.814 -20.139,5.943C-19.995,13.706 -12.608,14.507 -19.773,19.156C-26.93,23.801 -28.24,22.677 -31.548,23.845C-34.847,25.008 -38.059,33.001 -37.276,37.275C-36.48,41.551 -26.292,53.233 -33.864,52.744C-35.638,52.609 -49.004,43.456 -51.207,37.575C-53.527,31.386 -56.063,25.33 -57.862,20.66C-59.684,16.01 -64.401,14.816 -68.407,17.547C-72.39,20.269 -67.3,22.996 -70.174,28.826C-73.036,34.644 -75.093,39.84 -79.292,35.025C-90.202,22.487 -106.091,28.642 -108.563,14.705C-109.896,7.148 -116.404,7.863 -121.835,3.577C-127.297,-0.684 -130.335,-3.003 -131.261,0.077C-132.074,2.779 -114.171,17.012 -112.898,20.656C-111.005,26.064 -118.28,30.827 -123.604,32.101C-128.902,33.364 -131.234,29.105 -136.444,23.664C-141.649,18.235 -143.929,14.348 -144.295,18.612C-144.828,24.77 -139.364,33.825 -134.054,37.214C-129.528,40.09 -124.453,41.396 -125.926,46.049C-127.407,50.718 -125.955,48.077 -131.038,53.09C-136.129,58.132 -137.101,59.753 -136.74,66.722C-136.384,73.716 -138.203,74.114 -139.303,79.924C-140.398,85.737 -142.914,80.703 -145.123,89.228M-205.103,-34.249C-204.847,-34.553 -204.618,-34.8 -204.521,-34.926C-202.496,-37.226 -198.472,-37.713 -195.688,-38.144C-192.902,-38.618 -189.188,-37.208 -188.741,-35.356C-188.268,-33.513 -195.735,-30.142 -197.101,-28.878C-200.972,-25.322 -207.035,-18.076 -210.576,-17.297C-211.734,-17.039 -212.685,-17.217 -213.468,-17.606C-211.131,-23.406 -208.341,-28.984 -205.103,-34.249M-199.347,-45.658C-197.895,-47.782 -193.074,-53.846 -192.488,-54.612C-191.248,-56.203 -188.792,-56.526 -187.065,-56.829C-185.36,-57.159 -183.086,-56.193 -182.815,-54.91C-182.522,-53.624 -183.484,-48.651 -184.326,-47.796C-186.685,-45.354 -192.826,-41.909 -196.207,-42.456C-198.822,-42.861 -199.844,-44.887 -199.347,-45.658M156.5,20.99C137.423,-5.846 51.112,-113.001 -109.6,-113.22C-270.338,-113.439 -356.915,-6.52 -376.094,20.264C-376.91,21.41 -377.611,22.399 -378.185,23.241C-377.613,24.107 -376.915,25.094 -376.102,26.256C-356.996,53.079 -270.711,160.238 -109.973,160.457C50.739,160.675 137.342,53.752 156.491,26.982C157.329,25.823 158.017,24.838 158.568,23.972C158.019,23.13 157.334,22.137 156.5,20.99" style="fill:white;fill-rule:nonzero;"/>
        </g>
    </g>
</svg>
