<?xml version="1.0" encoding="UTF-8" standalone="no"?>
<!DOCTYPE svg PUBLIC "-//W3C//DTD SVG 1.1//EN" "http://www.w3.org/Graphics/SVG/1.1/DTD/svg11.dtd">
<svg width="100%" height="100%" viewBox="0 0 2800 2800" version="1.1" xmlns="http://www.w3.org/2000/svg" xmlns:xlink="http://www.w3.org/1999/xlink" xml:space="preserve" xmlns:serif="http://www.serif.com/" style="fill-rule:evenodd;clip-rule:evenodd;stroke-linejoin:round;stroke-miterlimit:1.41421;">
    <g transform="matrix(5.21124,0,0,5.21124,-1635.06,-10409.9)">
        <circle cx="582.407" cy="2266.23" r="268.65" style="fill:rgb(224,21,131);"/>
    </g>
    <g transform="matrix(1,0,0,1,-390.828,-771.494)">
        <g transform="matrix(4.16667,0,0,4.16667,2067.87,2438.7)">
            <path d="M0,-43.208L-132.996,-43.208C-133.796,-43.208 -134.441,-42.482 -134.441,-41.594L-134.441,-1.624C-134.441,-0.717 -133.796,0 -132.996,0L0,0C0.815,0 1.462,-0.717 1.462,-1.624L1.462,-41.594C1.462,-42.482 0.815,-43.208 0,-43.208" style="fill:white;fill-rule:nonzero;"/>
        </g>
        <g transform="matrix(4.16667,0,0,4.16667,2067.87,2084.33)">
            <path d="M0,-43.208L-132.996,-43.208C-133.796,-43.208 -134.441,-42.482 -134.441,-41.594L-134.441,-1.623C-134.441,-0.717 -133.796,0 -132.996,0L0,0C0.815,0 1.462,-0.717 1.462,-1.623L1.462,-41.594C1.462,-42.482 0.815,-43.208 0,-43.208" style="fill:white;fill-rule:nonzero;"/>
        </g>
        <g transform="matrix(4.16667,0,0,4.16667,2060.07,1392.59)">
            <path d="M0,62.387L-63.839,-1.451C-64.27,-1.883 -64.968,-1.883 -65.398,-1.451L-129.237,62.387C-129.932,63.082 -129.44,64.27 -128.458,64.27L-0.78,64.27C0.203,64.27 0.695,63.082 0,62.387" style="fill:white;fill-rule:nonzero;"/>
        </g>
        <g transform="matrix(4.16667,0,0,4.16667,2309.78,1902.25)">
            <path d="M0,129.237L63.839,65.399C64.27,64.968 64.27,64.27 63.839,63.84L0,0.001C-0.694,-0.695 -1.883,-0.202 -1.883,0.78L-1.883,128.458C-1.883,129.44 -0.694,129.932 0,129.237" style="fill:white;fill-rule:nonzero;"/>
        </g>
        <g transform="matrix(4.16667,0,0,4.16667,1521.59,2950.39)">
            <path d="M0,-62.387L63.839,1.452C64.27,1.883 64.968,1.883 65.398,1.452L129.237,-62.387C129.933,-63.081 129.44,-64.27 128.457,-64.27L0.779,-64.27C-0.203,-64.27 -0.694,-63.081 0,-62.387" style="fill:white;fill-rule:nonzero;"/>
        </g>
        <g transform="matrix(4.16667,0,0,4.16667,1271.87,2440.74)">
            <path d="M0,-129.237L-63.838,-65.398C-64.27,-64.967 -64.27,-64.269 -63.838,-63.839L0,-0.001C0.695,0.695 1.883,0.202 1.883,-0.78L1.883,-128.458C1.883,-129.44 0.695,-129.932 0,-129.237" style="fill:white;fill-rule:nonzero;"/>
        </g>
    </g>
</svg>
