<?xml version="1.0" encoding="UTF-8" standalone="no"?>
<!DOCTYPE svg PUBLIC "-//W3C//DTD SVG 1.1//EN" "http://www.w3.org/Graphics/SVG/1.1/DTD/svg11.dtd">
<svg width="100%" height="100%" viewBox="0 0 2800 2800" version="1.1" xmlns="http://www.w3.org/2000/svg" xmlns:xlink="http://www.w3.org/1999/xlink" xml:space="preserve" xmlns:serif="http://www.serif.com/" style="fill-rule:evenodd;clip-rule:evenodd;stroke-linejoin:round;stroke-miterlimit:1.41421;">
    <g transform="matrix(1,0,0,1,-402.78,-617.445)">
        <g transform="matrix(9.42145,0,0,9.42145,-4536.81,-24613.7)">
            <circle cx="672.889" cy="2826.65" r="148.597" style="fill:rgb(25,54,103);"/>
        </g>
        <g transform="matrix(4.16667,0,0,4.16667,2070.27,2069.86)">
            <path d="M0,-25.159C18.609,-42.429 30.29,-67.071 30.29,-94.407C30.29,-98.495 30,-102.523 29.498,-106.481C67.316,-102.431 96.88,-70.341 96.88,-31.453C96.88,-9.361 87.277,10.48 72.084,24.298C57.863,-2.349 31.259,-21.404 0,-25.159M64.146,68.634C64.146,110.232 30.29,144.087 -11.322,144.087C-24.865,144.087 -37.536,140.455 -48.533,134.186C-32.481,117.244 -22.585,94.382 -22.585,69.261C-22.585,63.074 -23.209,57.032 -24.346,51.179C-10.776,58.721 4.817,63.031 21.415,63.031C36.177,63.031 50.164,59.621 62.614,53.55C63.618,58.43 64.146,63.471 64.146,68.634M-192.542,69.261C-192.542,63.894 -191.97,58.668 -190.891,53.622C-178.459,59.649 -164.523,63.031 -149.811,63.031C-133.266,63.031 -117.725,58.749 -104.187,51.252C-105.238,56.888 -105.819,62.695 -105.819,68.634C-105.819,94.154 -95.615,117.332 -79.109,134.354C-90.278,140.895 -103.231,144.712 -117.073,144.712C-158.695,144.712 -192.542,110.861 -192.542,69.261M-225.275,-31.453C-225.275,-70.341 -195.721,-102.427 -157.902,-106.481C-158.404,-102.523 -158.695,-98.495 -158.695,-94.407C-158.695,-66.786 -146.772,-41.895 -127.823,-24.604C-159.167,-21.036 -185.903,-2.095 -200.272,24.493C-215.575,10.678 -225.275,-9.257 -225.275,-31.453M-64.207,-169.87C-33.283,-169.87 -6.683,-151.17 4.971,-124.493C-25.728,-119.079 -51.356,-98.816 -64.207,-71.395C-77.04,-98.821 -102.677,-119.084 -133.376,-124.493C-121.723,-151.17 -95.121,-169.87 -64.207,-169.87M-46.235,1.791C-35.779,-3.69 -23.928,-6.836 -11.322,-6.836C18.346,-6.836 43.996,10.42 56.327,35.381C45.866,40.866 33.997,44.01 21.415,44.01C-8.264,44.01 -33.917,26.754 -46.235,1.791M-82.416,2.3C-94.831,26.989 -120.34,44.01 -149.811,44.01C-162.31,44.01 -174.087,40.9 -184.477,35.499C-172.062,10.81 -146.544,-6.209 -117.073,-6.209C-104.569,-6.209 -92.806,-3.104 -82.416,2.3M-138.681,-106.01C-102.342,-100.606 -74.342,-69.282 -74.342,-31.453C-74.342,-27.506 -74.742,-23.646 -75.332,-19.858C-111.676,-25.267 -139.667,-56.583 -139.667,-94.407C-139.667,-98.363 -139.271,-102.222 -138.681,-106.01M-63.854,122.686C-77.982,108.967 -86.792,89.817 -86.792,68.634C-86.792,47.77 -78.269,28.861 -64.55,15.188C-50.431,28.906 -41.612,48.06 -41.612,69.261C-41.612,90.112 -50.127,109.016 -63.854,122.686M11.263,-94.407C11.263,-56.583 -16.729,-25.267 -53.073,-19.858C-53.662,-23.646 -54.054,-27.506 -54.054,-31.453C-54.054,-69.282 -26.062,-100.601 10.276,-106.006C10.866,-102.222 11.263,-98.363 11.263,-94.407M115.903,-31.453C115.903,-82.401 75.373,-124.028 24.884,-125.868C11.896,-162.544 -23.13,-188.895 -64.207,-188.895C-105.274,-188.895 -140.297,-162.544 -153.297,-125.868C-203.786,-124.023 -244.299,-82.397 -244.299,-31.453C-244.299,-1.222 -230.008,25.724 -207.837,43.032C-210.244,51.368 -211.569,60.161 -211.569,69.261C-211.569,121.343 -169.182,163.736 -117.073,163.736C-97.301,163.736 -78.938,157.616 -63.744,147.192C-48.731,157.237 -30.703,163.107 -11.322,163.107C40.776,163.107 83.165,120.718 83.165,68.634C83.165,59.716 81.901,51.099 79.586,42.925C101.665,25.609 115.903,-1.286 115.903,-31.453" style="fill:white;fill-rule:nonzero;"/>
        </g>
    </g>
</svg>
