<?xml version="1.0" encoding="UTF-8" standalone="no"?>
<!DOCTYPE svg PUBLIC "-//W3C//DTD SVG 1.1//EN" "http://www.w3.org/Graphics/SVG/1.1/DTD/svg11.dtd">
<svg width="100%" height="100%" viewBox="0 0 2800 2800" version="1.1" xmlns="http://www.w3.org/2000/svg" xmlns:xlink="http://www.w3.org/1999/xlink" xml:space="preserve" xmlns:serif="http://www.serif.com/" style="fill-rule:evenodd;clip-rule:evenodd;stroke-linejoin:round;stroke-miterlimit:1.41421;">
    <g transform="matrix(1,0,0,1,-418.583,-718.305)">
        <g transform="matrix(9.03176,0,0,9.03176,-6990.86,-12220.8)">
            <circle cx="975.385" cy="1587.63" r="155.009" style="fill:rgb(44,155,72);"/>
        </g>
        <g transform="matrix(1,0,0,1,28.0228,-6.94967)">
            <g transform="matrix(4.16667,0,0,4.16667,2803.94,2333.5)">
                <path d="M0,-40.1C0,-60.512 -13.098,-77.061 -32.936,-77.061C-42.855,-77.061 -54.821,-66.198 -61.32,-59.517C-67.817,-66.207 -78.991,-77.079 -88.915,-77.079C-108.752,-77.079 -122.656,-60.527 -122.656,-40.108C-122.656,-29.901 -118.636,-20.662 -112.13,-13.968L-61.275,36.979L-10.492,-13.911L-10.531,-13.948C-4.024,-20.64 0,-29.888 0,-40.1" style="fill:white;fill-rule:nonzero;"/>
            </g>
            <g transform="matrix(4.16667,0,0,4.16667,1901.81,1415.4)">
                <path d="M0,340.496C-0.171,340.496 -0.343,340.492 -0.519,340.48C-4.385,340.246 -7.577,337.377 -8.232,333.558L-34.063,183.115L-73.192,255.663C-74.905,258.841 -78.485,260.552 -82.002,259.92C-85.555,259.288 -88.293,256.451 -88.809,252.885L-105.419,136.78L-135.81,205.044C-137.154,208.056 -140.142,209.997 -143.44,209.997L-261.562,209.997C-266.175,209.997 -269.913,206.258 -269.913,201.647C-269.913,197.037 -266.175,193.296 -261.562,193.296L-148.864,193.296L-108.889,103.506C-107.374,100.106 -103.794,98.123 -100.106,98.632C-96.42,99.146 -93.519,102.035 -92.991,105.72L-75.865,225.437L-37.276,153.891C-35.585,150.747 -32.094,149.03 -28.572,149.613C-25.059,150.188 -22.299,152.931 -21.695,156.442L2.224,295.775L89.408,6.173C90.403,2.875 93.318,0.525 96.748,0.256C100.19,0 103.435,1.85 104.927,4.951L150.802,100.054C152.805,104.207 151.062,109.198 146.91,111.201C142.759,113.206 137.762,111.463 135.758,107.309L99.212,31.545L7.991,334.553C6.926,338.099 3.664,340.496 0,340.496" style="fill:white;fill-rule:nonzero;"/>
            </g>
        </g>
    </g>
</svg>
