<?xml version="1.0" encoding="UTF-8" standalone="no"?>
<!DOCTYPE svg PUBLIC "-//W3C//DTD SVG 1.1//EN" "http://www.w3.org/Graphics/SVG/1.1/DTD/svg11.dtd">
<svg width="100%" height="100%" viewBox="0 0 2800 2800" version="1.1" xmlns="http://www.w3.org/2000/svg" xmlns:xlink="http://www.w3.org/1999/xlink" xml:space="preserve" xmlns:serif="http://www.serif.com/" style="fill-rule:evenodd;clip-rule:evenodd;stroke-linejoin:round;stroke-miterlimit:1.41421;">
    <g transform="matrix(1,0,0,1,-365.831,-382.805)">
        <g transform="matrix(8.42629,0,0,8.42629,-2996.77,-14159.2)">
            <circle cx="565.207" cy="1891.93" r="166.147" style="fill:rgb(63,175,73);"/>
        </g>
        <g transform="matrix(1,0,0,1,-7.45804,-421.724)">
            <g transform="matrix(4.16667,0,0,4.16667,1529.03,2554.56)">
                <path d="M0,-56.038C0.885,-56.038 1.598,-55.318 1.598,-54.434L1.598,-1.606C1.598,-0.709 0.885,0 0,0L-21.379,0C-22.268,0 -22.985,-0.709 -22.985,-1.606L-22.985,-54.434C-22.985,-55.318 -22.268,-56.038 -21.379,-56.038L0,-56.038Z" style="fill:white;fill-rule:nonzero;"/>
            </g>
            <g transform="matrix(4.16667,0,0,4.16667,2507.23,2752.29)">
                <path d="M0,-24.773L-352.294,-24.773C-353.174,-24.773 -353.906,-24.015 -353.906,-23.118L-353.906,-1.586C-353.906,-0.71 -353.174,0 -352.294,0L0,0C0.868,0 1.616,-0.71 1.616,-1.586L1.616,-23.118C1.616,-24.015 0.868,-24.773 0,-24.773" style="fill:white;fill-rule:nonzero;"/>
            </g>
            <g transform="matrix(4.16667,0,0,4.16667,2507.23,2930.62)">
                <path d="M0,-24.773L-352.294,-24.773C-353.174,-24.773 -353.906,-24.064 -353.906,-23.188L-353.906,-1.588C-353.906,-0.726 -353.174,0 -352.294,0L0,0C0.868,0 1.616,-0.726 1.616,-1.588L1.616,-23.188C1.616,-24.064 0.868,-24.773 0,-24.773" style="fill:white;fill-rule:nonzero;"/>
            </g>
            <g transform="matrix(4.16667,0,0,4.16667,2227.9,2113.72)">
                <path d="M0,-8.714C-4.403,-12.156 -16.149,-20.195 -30.475,-20.195C-40.715,-20.195 -50.243,-16.16 -58.766,-8.174C-59.369,-7.602 -59.708,-6.81 -59.708,-5.964L-59.708,-4.045C-59.708,-3.1 -59.396,-2.217 -58.705,-1.636C-57.938,-1.058 -57.137,-0.839 -56.221,-1.058C-56.019,-1.086 -55.768,-1.15 -55.561,-1.227C-54.909,-1.454 -54.297,-1.846 -53.799,-2.343C-51.951,-3.584 -46.906,-5.279 -39.689,-5.279C-32.227,-5.279 -17.562,-3.281 -3.39,9.933L-3.064,10.224C-2.268,11.046 -1.167,11.499 0,11.499C1.109,11.499 2.258,11.036 2.98,10.253L3.267,9.958C17.518,-3.281 32.156,-5.279 39.619,-5.279C46.887,-5.279 51.911,-3.584 53.764,-2.343C54.271,-1.846 54.891,-1.444 55.709,-1.15C56.022,-1.058 56.921,-0.875 57.774,-1.086C59.078,-1.454 59.994,-2.627 59.994,-3.989L59.994,-5.69C59.994,-6.494 59.646,-7.307 59.047,-7.868C50.444,-16.068 40.817,-20.213 30.413,-20.213C16.219,-20.213 4.526,-12.299 0,-8.714" style="fill:white;fill-rule:nonzero;"/>
            </g>
            <g transform="matrix(4.16667,0,0,4.16667,2136.81,1593.1)">
                <path d="M0,-24.173C-0.749,-23.825 -1.291,-23.141 -1.538,-22.317L-1.894,-21.142C-2.158,-20.217 -1.99,-19.241 -1.431,-18.495C-0.885,-17.78 -0.11,-17.349 0.748,-17.309C0.911,-17.289 1.07,-17.249 1.188,-17.289C1.8,-17.309 2.35,-17.441 2.893,-17.726C3.204,-17.789 3.856,-17.963 5.027,-17.963C6.604,-17.963 20.806,-17.486 30.196,-1.524L30.315,-1.297C30.827,-0.373 31.623,0.264 32.57,0.508C32.842,0.597 33.367,0.681 33.692,0.681C34.344,0.681 35,0.508 35.467,0.242L35.7,0.13C40.838,-2.44 46.161,-3.758 51.417,-3.758C60.315,-3.758 66.126,-0.128 67.482,1.384C67.76,1.897 68.183,2.344 68.662,2.698C68.961,2.871 69.489,3.137 69.807,3.249C69.965,3.289 70.15,3.31 70.326,3.323C70.423,3.344 70.538,3.344 70.644,3.344C71.123,3.344 71.585,3.224 72.039,2.993C72.761,2.631 73.302,1.972 73.536,1.188L73.831,0.149C73.919,-0.115 73.954,-0.403 73.954,-0.707C73.954,-1.257 73.813,-1.79 73.544,-2.219C66.703,-14.1 56.775,-16.583 49.647,-16.583C44.342,-16.583 39.702,-15.207 36.968,-14.203C33.741,-18.544 25.583,-27.517 13.208,-27.517C8.857,-27.517 4.424,-26.399 0,-24.173" style="fill:white;fill-rule:nonzero;"/>
            </g>
            <g transform="matrix(4.16667,0,0,4.16667,1826.65,1696.91)">
                <path d="M0,5.113L0.101,6.698C0.149,7.688 0.668,8.545 1.509,9.071C2.205,9.509 3.095,9.661 3.878,9.429C4.05,9.39 4.244,9.326 4.394,9.269C5.001,9.02 5.516,8.634 5.917,8.144C7.414,7.064 12.238,5.093 19.354,5.093C26.195,5.093 36.603,6.921 47.209,15.632L47.455,15.884C48.212,16.538 49.181,16.908 50.172,16.908L50.431,16.908C51.541,16.822 52.567,16.311 53.196,15.578L53.434,15.311C65.176,2.885 77.824,1.039 84.318,1.039C88.944,1.039 92.225,1.994 93.501,2.717C93.986,3.134 94.584,3.465 95.333,3.667C95.544,3.717 96.064,3.81 96.623,3.751C96.852,3.726 97.138,3.647 97.362,3.575C98.622,3.134 99.449,1.906 99.361,0.546L99.282,-0.832C99.229,-1.654 98.847,-2.391 98.221,-2.928C91.212,-8.824 83.648,-11.795 75.689,-11.795C63.296,-11.795 53.411,-4.478 49.317,-0.89C45.57,-3.441 36.479,-8.691 25.812,-8.691C16.438,-8.691 8.034,-4.797 0.818,2.859C0.25,3.465 -0.036,4.288 0,5.113" style="fill:white;fill-rule:nonzero;"/>
            </g>
            <g transform="matrix(4.16667,0,0,4.16667,1083.82,1905.35)">
                <path d="M0,-16.631C0,-37.728 17.105,-54.823 38.192,-54.823C39.02,-54.823 39.826,-54.75 40.641,-54.705C42.653,-81.402 64.899,-102.457 92.115,-102.457C120.658,-102.457 143.797,-79.323 143.797,-50.781C143.797,-42.696 141.882,-35.077 138.572,-28.262C164.437,-22.532 183.795,0.5 183.795,28.077C183.795,59.97 157.938,85.826 126.046,85.826C123.717,85.826 48.979,85.377 48.979,85.377C26.389,85.373 8.083,67.075 8.083,44.488C8.083,33.639 12.336,23.813 19.231,16.492C7.753,9.904 0,-2.443 0,-16.631" style="fill:white;fill-rule:nonzero;"/>
            </g>
        </g>
    </g>
</svg>
