<?xml version="1.0" encoding="UTF-8" standalone="no"?>
<!DOCTYPE svg PUBLIC "-//W3C//DTD SVG 1.1//EN" "http://www.w3.org/Graphics/SVG/1.1/DTD/svg11.dtd">
<svg width="100%" height="100%" viewBox="0 0 2800 2868" version="1.1" xmlns="http://www.w3.org/2000/svg" xmlns:xlink="http://www.w3.org/1999/xlink" xml:space="preserve" xmlns:serif="http://www.serif.com/" style="fill-rule:evenodd;clip-rule:evenodd;stroke-linejoin:round;stroke-miterlimit:1.41421;">
    <g transform="matrix(4.1699,0,0,4.1699,-37.0108,-13.6194)">
        <g transform="matrix(3.77551,-1.76257,-1.76257,-3.77551,216.544,232.901)">
            <path d="M-8.074,-3.267C-5.015,-1.165 -1.706,0.526 1.763,1.771L-8.074,33.277C-15.406,30.799 -22.352,27.2 -28.643,22.596L-8.074,-3.267Z" style="fill:rgb(63,175,73);fill-rule:nonzero;"/>
        </g>
        <g transform="matrix(2.10435,3.59623,3.59623,-2.10435,406.665,105.029)">
            <path d="M18.616,-7.464C21.648,-5.336 24.929,-3.627 28.369,-2.365L18.616,29.185C11.277,26.672 4.306,23.035 -2.011,18.352L18.616,-7.464Z" style="fill:rgb(210,160,42);fill-rule:nonzero;"/>
        </g>
        <g transform="matrix(4.16667,0,0,4.16667,631.823,323.153)">
            <path d="M0,-25.181L-29.561,-10.445C-28.148,-7.151 -27.146,-3.651 -26.602,0L6.283,-3.106C5.312,-10.89 3.158,-18.312 0,-25.181" style="fill:rgb(194,31,51);fill-rule:nonzero;"/>
        </g>
        <g transform="matrix(4.16667,0,0,4.16667,499.816,124.028)">
            <path d="M0,33.073L29.557,18.34C25.896,11.536 21.227,5.354 15.745,0L-6.559,24.345C-4.019,26.957 -1.809,29.886 0,33.073" style="fill:rgb(44,155,72);fill-rule:nonzero;"/>
        </g>
        <g transform="matrix(4.16667,0,0,4.16667,167.341,405.023)">
            <path d="M0,-13.359C0,-14.025 0.022,-14.69 0.052,-15.349L-32.84,-18.295C-32.942,-16.664 -33.005,-15.019 -33.005,-13.359C-33.005,-7.05 -32.222,-0.922 -30.767,4.936L1,-4.177C0.35,-7.137 0,-10.207 0,-13.359" style="fill:rgb(72,119,61);fill-rule:nonzero;"/>
        </g>
        <g transform="matrix(-4.03059,1.05616,1.05616,4.03059,576.532,598.488)">
            <path d="M13.512,-37.404C16.495,-35.243 19.748,-33.474 23.184,-32.137L13.512,-0.537C6.17,-3.128 -0.732,-6.833 -6.943,-11.503L13.512,-37.404Z" style="fill:rgb(253,183,19);fill-rule:nonzero;"/>
        </g>
        <g transform="matrix(4.16667,0,0,4.16667,522.899,405.839)">
            <path d="M0,-13.555C0,-10.442 -0.335,-7.405 -0.979,-4.48L30.785,4.646C32.233,-1.186 33.005,-7.284 33.005,-13.555C33.005,-15.114 32.954,-16.659 32.858,-18.201L-0.029,-15.093C-0.011,-14.578 0,-14.07 0,-13.555" style="fill:rgb(239,64,42);fill-rule:nonzero;"/>
        </g>
        <g transform="matrix(4.16667,0,0,4.16667,209.895,612.673)">
            <path d="M0,-35.533L-26.289,-15.553C-21.399,-9.533 -15.609,-4.285 -9.12,0L8.242,-28.088C5.184,-30.203 2.412,-32.71 0,-35.533" style="fill:rgb(249,157,37);fill-rule:nonzero;"/>
        </g>
        <g transform="matrix(2.88389,-3.00738,-3.00738,-2.88389,188.535,260.288)">
            <path d="M-13.718,-6.846C-10.629,-4.7 -7.32,-3.018 -3.89,-1.788L-13.718,29.729C-20.992,27.277 -27.97,23.687 -34.373,18.957L-13.718,-6.846Z" style="fill:rgb(0,125,187);fill-rule:nonzero;"/>
        </g>
        <g transform="matrix(4.16667,0,0,4.16667,504.67,539.669)">
            <path d="M0,19.566L-17.341,-8.515C-20.491,-6.736 -23.885,-5.34 -27.462,-4.403L-21.341,28.081C-13.727,26.332 -6.547,23.426 0,19.566" style="fill:rgb(143,23,55);fill-rule:nonzero;"/>
        </g>
        <g transform="matrix(-3.3493,2.47857,2.47857,3.3493,651.9,483.208)">
            <path d="M15.714,-34.581C18.649,-32.55 21.794,-30.914 25.081,-29.686L15.714,1.992C8.608,-0.41 1.83,-3.878 -4.371,-8.372L15.714,-34.581Z" style="fill:rgb(0,173,216);fill-rule:nonzero;"/>
        </g>
        <g transform="matrix(4.16667,0,0,4.16667,370.763,664.65)">
            <path d="M0,-33.45C-2.007,-33.159 -4.062,-33.001 -6.154,-33.001C-7.834,-33.001 -9.492,-33.106 -11.12,-33.296L-17.238,-0.811C-13.617,-0.281 -9.919,0 -6.154,0C-1.979,0 2.121,-0.344 6.113,-0.996L0,-33.45Z" style="fill:rgb(243,109,36);fill-rule:nonzero;"/>
        </g>
        <g transform="matrix(3.28745,2.56004,2.56004,-3.28745,326.662,129.607)">
            <path d="M11.889,-3.618C14.926,-1.551 18.147,0.075 21.472,1.262L11.889,32.876C4.788,30.505 -2.059,27.045 -8.41,22.448L11.889,-3.618Z" style="fill:rgb(235,28,44);fill-rule:nonzero;"/>
        </g>
        <g transform="matrix(-2.72921,-3.14841,-3.14841,2.72921,163.969,576.918)">
            <path d="M-12.282,-34.096C-9.208,-31.865 -5.89,-30.09 -2.429,-28.776L-12.282,2.76C-19.55,0.215 -26.478,-3.453 -32.799,-8.224L-12.282,-34.096Z" style="fill:rgb(224,21,131);fill-rule:nonzero;"/>
        </g>
        <g transform="matrix(3.98159,1.22804,1.22804,-3.98159,270.123,177.273)">
            <path d="M5.124,0.948C8.08,2.993 11.339,4.688 14.859,5.957L5.124,37.52C-2.401,34.978 -9.264,31.348 -15.369,26.869L5.124,0.948Z" style="fill:rgb(25,54,103);fill-rule:nonzero;"/>
        </g>
        <g transform="matrix(0.110874,-4.16519,-4.16519,-0.110874,102.663,392.265)">
            <path d="M-12.956,-23.196C-9.917,-21.018 -6.575,-19.219 -3.004,-17.896L-12.956,13.595C-20.461,10.99 -27.417,7.241 -33.629,2.556L-12.956,-23.196Z" style="fill:rgb(207,141,42);fill-rule:nonzero;"/>
        </g>
        <g transform="matrix(4.15446,-0.318694,-0.318694,-4.15446,240.681,207.605)">
            <path d="M-1.409,-0.448C1.542,1.542 4.745,3.163 8.138,4.372L-1.409,35.99C-8.726,33.557 -15.567,30.028 -21.733,25.59L-1.409,-0.448Z" style="fill:rgb(1,85,138);fill-rule:nonzero;"/>
        </g>
    </g>
</svg>
