<?xml version="1.0" encoding="UTF-8" standalone="no"?>
<!DOCTYPE svg PUBLIC "-//W3C//DTD SVG 1.1//EN" "http://www.w3.org/Graphics/SVG/1.1/DTD/svg11.dtd">
<svg width="100%" height="100%" viewBox="0 0 2800 2800" version="1.1" xmlns="http://www.w3.org/2000/svg" xmlns:xlink="http://www.w3.org/1999/xlink" xml:space="preserve" xmlns:serif="http://www.serif.com/" style="fill-rule:evenodd;clip-rule:evenodd;stroke-linecap:round;stroke-miterlimit:10;">
    <g transform="matrix(1,0,0,1,-155.787,-332.439)">
        <g transform="matrix(2.01064,0,0,2.01064,1582.27,-2265.41)">
            <circle cx="-13.172" cy="1988.35" r="696.297" style="fill:rgb(235,28,44);"/>
        </g>
        <g transform="matrix(1,0,0,1,-20.7511,58.5115)">
            <g transform="matrix(4.16667,0,0,4.16667,2439.54,1264.1)">
                <path d="M0,0.005C0,-11.099 9.003,-20.086 20.098,-20.086C31.175,-20.086 40.152,-11.099 40.152,0.005C40.152,11.097 31.175,20.091 20.098,20.091C9.003,20.091 0,11.097 0,0.005" style="fill:white;fill-rule:nonzero;"/>
            </g>
            <g transform="matrix(4.16667,0,0,4.16667,2620.97,2166.02)">
                <path d="M0,-188.624C13.625,-187.392 24.306,-175.93 24.306,-161.951L24.306,-106.277C24.306,-101.995 20.819,-98.495 16.531,-98.495C12.212,-98.495 8.738,-101.995 8.738,-106.277L8.738,-154.093C8.738,-155.887 8.219,-158.314 4.939,-158.314C2.672,-158.314 2.2,-155.911 2.117,-154.381L2.117,-11.062C2.117,-4.903 -2.871,0.123 -9.062,0.123C-15.256,0.123 -20.27,-4.903 -20.27,-11.062L-20.27,-93.652C-20.301,-94.563 -20.604,-96.931 -23.444,-96.931L-23.457,-96.931C-26.311,-96.931 -26.659,-94.563 -26.689,-93.652L-26.689,-11.062C-26.689,-4.903 -31.672,0.123 -37.863,0.123C-44.066,0.123 -49.054,-4.903 -49.054,-11.062L-49.054,-154.381C-49.129,-155.911 -49.617,-158.314 -51.868,-158.314C-55.165,-158.314 -55.662,-155.887 -55.662,-154.093L-55.662,-106.277C-55.662,-101.995 -59.154,-98.495 -63.455,-98.495C-67.761,-98.495 -71.229,-101.995 -71.229,-106.277L-71.229,-152.358L-71.229,-155.277L-71.229,-161.951C-71.229,-175.93 -60.541,-187.392 -46.893,-188.624C-46.448,-188.682 -45.959,-188.747 -45.422,-188.747L-1.528,-188.747C-0.952,-188.747 -0.48,-188.682 0,-188.624" style="fill:white;fill-rule:nonzero;"/>
            </g>
            <g transform="matrix(4.16667,0,0,4.16667,1941.91,1308)">
                <path d="M0,0.018C0,-10.487 -8.493,-19.021 -19.001,-19.021C-29.516,-19.021 -38.03,-10.487 -38.03,0.018C-38.03,10.527 -29.516,19.039 -19.001,19.039C-8.493,19.039 0,10.527 0,0.018" style="fill:white;fill-rule:nonzero;"/>
            </g>
            <g transform="matrix(4.16667,0,0,4.16667,1703.04,2105.4)">
                <path d="M0,-148.277L-15.809,-96.81C-15.809,-96.81 -18.627,-87.376 -10.623,-85.021C-2.659,-82.661 -0.241,-91.874 -0.241,-91.874L12.508,-134.827C12.508,-134.827 13.199,-138.131 15.682,-137.416C18.17,-136.704 17.236,-133.17 17.236,-133.17L-4.953,-52.673L15.682,-52.673L15.682,4.984C15.682,10.438 20.125,14.878 25.601,14.878C31.07,14.878 35.494,10.438 35.494,4.984L35.494,-52.673L41.125,-52.673L41.125,4.984C41.125,10.438 45.541,14.878 51.027,14.878C56.516,14.878 60.95,10.438 60.95,4.984L60.95,-52.673L81.576,-52.673L59.405,-133.17C59.405,-133.17 58.471,-136.704 60.95,-137.416C63.438,-138.131 64.128,-134.827 64.128,-134.827L76.874,-91.874C76.874,-91.874 79.3,-82.661 87.251,-85.021C95.272,-87.376 92.441,-96.81 92.441,-96.81L76.632,-148.277C76.632,-148.277 70.983,-163.155 58.471,-163.155L38.325,-163.155L18.17,-163.155C5.663,-163.155 0,-148.277 0,-148.277" style="fill:white;fill-rule:nonzero;"/>
            </g>
            <g transform="matrix(4.16667,0,0,4.16667,1467.29,1308)">
                <path d="M0,0.018C0,-10.487 -8.505,-19.021 -19.01,-19.021C-29.523,-19.021 -38.029,-10.487 -38.029,0.018C-38.029,10.527 -29.523,19.039 -19.01,19.039C-8.505,19.039 0,10.527 0,0.018" style="fill:white;fill-rule:nonzero;"/>
            </g>
            <g transform="matrix(4.16667,0,0,4.16667,1228.39,2105.4)">
                <path d="M0,-148.277L-15.801,-96.81C-15.801,-96.81 -18.627,-87.376 -10.619,-85.021C-2.659,-82.661 -0.242,-91.874 -0.242,-91.874L12.508,-134.827C12.508,-134.827 13.199,-138.131 15.682,-137.416C18.174,-136.704 17.232,-133.17 17.232,-133.17L-4.949,-52.673L15.682,-52.673L15.682,4.984C15.682,10.438 20.137,14.878 25.601,14.878C31.078,14.878 35.502,10.438 35.502,4.984L35.502,-52.673L41.134,-52.673L41.134,4.984C41.134,10.438 45.541,14.878 51.039,14.878C56.529,14.878 60.95,10.438 60.95,4.984L60.95,-52.673L81.584,-52.673L59.417,-133.17C59.417,-133.17 58.476,-136.704 60.95,-137.416C63.433,-138.131 64.132,-134.827 64.132,-134.827L76.869,-91.874C76.869,-91.874 79.295,-82.661 87.251,-85.021C95.268,-87.376 92.437,-96.81 92.437,-96.81L76.627,-148.277C76.627,-148.277 70.992,-163.155 58.476,-163.155L38.342,-163.155L18.174,-163.155C5.671,-163.155 0,-148.277 0,-148.277" style="fill:white;fill-rule:nonzero;"/>
            </g>
            <g transform="matrix(4.16667,0,0,4.16667,2208.04,1619.67)">
                <path d="M0,31.662C8.757,31.662 15.823,24.576 15.823,15.816C15.823,7.065 8.757,0 0,0C-8.756,0 -15.832,7.065 -15.832,15.816C-15.832,24.576 -8.756,31.662 0,31.662" style="fill:white;fill-rule:nonzero;"/>
            </g>
            <g transform="matrix(4.16667,0,0,4.16667,2049.9,1987.89)">
                <path d="M0,-7.532C-0.774,-5.68 -1.409,-1.756 2.308,-0.043C6.666,1.957 9.091,-2.253 9.091,-2.253L17.698,-29.697C17.698,-29.697 19.191,-31.535 19.191,-29.635L19.191,34.97L19.231,34.97C19.231,39.468 22.85,43.093 27.353,43.093C31.844,43.093 35.472,39.468 35.472,34.97L35.472,9.475C35.472,9.475 35.001,5.872 37.907,5.872C40.812,5.872 40.364,9.475 40.364,9.475L40.364,34.97C40.364,39.468 44.009,43.093 48.499,43.093C52.981,43.093 56.64,39.468 56.64,34.97L56.64,-29.635C56.64,-31.535 57.643,-30.179 57.643,-30.179L64.388,-11.386C64.388,-11.386 67.316,-2.988 68.218,-2.618C71.26,-1.34 74.778,-2.792 76.063,-5.863C76.904,-7.867 76.583,-10.017 75.42,-11.639L75.478,-11.699C75.285,-12.306 65.396,-36.554 64.234,-39.957C60.663,-50.381 54.165,-50.29 47.909,-50.462C41.648,-50.611 37.907,-50.462 37.907,-50.462C37.907,-50.462 33.909,-50.625 25.646,-50.381C17.399,-50.12 14.793,-45.894 5.693,-22.481C4.395,-19.109 0,-8.199 -0.057,-7.545L0,-7.532Z" style="fill:white;fill-rule:nonzero;"/>
            </g>
            <g transform="matrix(4.16667,0,0,4.16667,759.574,1264.1)">
                <path d="M0,0.005C0,-11.099 -9.012,-20.086 -20.103,-20.086C-31.184,-20.086 -40.161,-11.099 -40.161,0.005C-40.161,11.097 -31.184,20.091 -20.103,20.091C-9.012,20.091 0,11.097 0,0.005" style="fill:white;fill-rule:nonzero;"/>
            </g>
            <g transform="matrix(4.16667,0,0,4.16667,578.116,2166.02)">
                <path d="M0,-188.624C-13.622,-187.392 -24.316,-175.93 -24.316,-161.951L-24.316,-106.277C-24.316,-101.995 -20.825,-98.495 -16.523,-98.495C-12.218,-98.495 -8.735,-101.995 -8.735,-106.277L-8.735,-154.093C-8.735,-155.887 -8.216,-158.314 -4.936,-158.314C-2.673,-158.314 -2.202,-155.911 -2.105,-154.381L-2.105,-11.062C-2.105,-4.903 2.875,0.123 9.069,0.123C15.254,0.123 20.255,-4.903 20.255,-11.062L20.255,-93.652C20.304,-94.563 20.604,-96.931 23.447,-96.931L23.456,-96.931C26.309,-96.931 26.657,-94.563 26.684,-93.652L26.684,-11.062C26.684,-4.903 31.677,0.123 37.862,0.123C44.061,0.123 49.048,-4.903 49.048,-11.062L49.048,-154.381C49.115,-155.911 49.625,-158.314 51.871,-158.314C55.168,-158.314 55.661,-155.887 55.661,-154.093L55.661,-106.277C55.661,-101.995 59.153,-98.495 63.454,-98.495C67.755,-98.495 71.233,-101.995 71.233,-106.277L71.233,-152.358L71.233,-155.277L71.233,-161.951C71.233,-175.93 60.548,-187.392 46.9,-188.624C46.447,-188.682 45.967,-188.747 45.426,-188.747L23.447,-188.747L1.532,-188.747C0.955,-188.747 0.475,-188.682 0,-188.624" style="fill:white;fill-rule:nonzero;"/>
            </g>
            <g transform="matrix(-0.772416,4.09445,4.09445,0.772416,654.633,2026.89)">
                <path d="M-57.018,-47.268L39.184,-47.268" style="fill:none;stroke:white;stroke-width:8.54px;"/>
            </g>
            <g transform="matrix(4.16667,0,0,4.16667,914.654,2156.13)">
                <path d="M0,-105.383C-1.039,-107.005 -2.827,-108.088 -4.887,-108.088C-8.065,-108.088 -10.654,-105.5 -10.654,-102.334C-10.654,-101.414 -10.09,-99.802 -10.09,-99.802L5.869,-70.922C5.869,-70.922 6.846,-68.931 6.846,-67.113L6.846,-5.097L6.877,-5.097C6.877,-0.769 10.368,2.705 14.683,2.705C18.988,2.705 22.462,-0.769 22.462,-5.097L22.462,-29.57C22.462,-29.57 22.022,-33.033 24.817,-33.033C27.604,-33.033 27.169,-29.57 27.169,-29.57L27.169,-5.097C27.169,-0.769 30.668,2.705 34.979,2.705C39.285,2.705 42.793,-0.769 42.793,-5.097L42.793,-67.113C42.793,-68.931 43.757,-70.922 43.757,-70.922L58.51,-97.584C58.51,-97.584 60.315,-101.414 60.315,-102.334C60.315,-105.5 57.735,-108.088 54.543,-108.088C52.457,-108.088 50.674,-107.005 49.661,-105.383L49.595,-105.416C49.133,-105.017 41.746,-91.86 39.307,-89.424C36.726,-86.824 34.42,-87.112 34.42,-87.112L24.817,-87.112L15.238,-87.112C15.238,-87.112 12.913,-86.824 10.346,-89.424C7.876,-91.86 0.52,-105.017 0.048,-105.416L0,-105.383Z" style="fill:white;fill-rule:nonzero;"/>
            </g>
            <g transform="matrix(4.16667,0,0,4.16667,1018.06,1619.67)">
                <path d="M0,31.662C8.757,31.662 15.823,24.576 15.823,15.816C15.823,7.065 8.757,0 0,0C-8.752,0 -15.823,7.065 -15.823,15.816C-15.823,24.576 -8.752,31.662 0,31.662" style="fill:white;fill-rule:nonzero;"/>
            </g>
            <g transform="matrix(4.16667,0,0,4.16667,1018.17,2028.99)">
                <path d="M0,-44.355L17.893,-31.307L26.394,0L0,0L-26.415,0L-17.892,-31.307L0,-44.355Z" style="fill:white;fill-rule:nonzero;"/>
            </g>
        </g>
    </g>
</svg>
