<?xml version="1.0" encoding="UTF-8" standalone="no"?>
<!DOCTYPE svg PUBLIC "-//W3C//DTD SVG 1.1//EN" "http://www.w3.org/Graphics/SVG/1.1/DTD/svg11.dtd">
<svg width="100%" height="100%" viewBox="0 0 2800 2800" version="1.1" xmlns="http://www.w3.org/2000/svg" xmlns:xlink="http://www.w3.org/1999/xlink" xml:space="preserve" xmlns:serif="http://www.serif.com/" style="fill-rule:evenodd;clip-rule:evenodd;stroke-linejoin:round;stroke-miterlimit:1.41421;">
    <g transform="matrix(1,0,0,1,-406.15,-408.185)">
        <g transform="matrix(7.10058,0,0,7.10058,-3024.07,-11330.8)">
            <circle cx="680.256" cy="1850.41" r="197.167" style="fill:rgb(0,173,216);"/>
        </g>
        <g transform="matrix(4.16667,0,0,4.16667,2288.34,2340.79)">
            <g>
                <path d="M0,-255.652C-7.133,-258.794 -16.176,-257.662 -24.857,-254.144C-57.516,-240.908 -79.739,-236.147 -114.089,-246.902C-135.719,-253.673 -155.958,-267.854 -179.881,-259.219C-195.757,-253.508 -210.549,-248.06 -228.499,-248.199L-238.867,-301.351L7.453,-301.351L0,-255.652ZM-83.49,-97.816C-83.49,-97.816 -95.448,-85.528 -114.898,-86.86C-134.394,-85.528 -146.338,-97.816 -146.338,-97.816C-166.057,-117.515 -159.021,-142.024 -152.157,-154.689C-147.918,-162.621 -117.624,-208.117 -115.018,-211.987L-115.018,-212.294C-115.018,-212.294 -114.974,-212.234 -114.898,-212.146L-114.794,-212.294L-114.794,-211.987C-112.257,-208.117 -81.915,-162.621 -77.675,-154.689C-70.803,-142.024 -63.789,-117.515 -83.49,-97.816M18.23,-311.92C17.614,-312.589 16.786,-312.961 15.85,-312.961L-247.346,-312.961C-248.257,-312.961 -249.094,-312.589 -249.711,-311.92C-250.287,-311.184 -250.516,-310.277 -250.37,-309.43L-206.151,-41.99C-205.909,-40.511 -204.614,-39.413 -203.118,-39.413L-148.847,-39.413L-145.136,4.146L-167.972,4.172L-114.833,57.309L-61.566,4.052L-84.397,4.076L-80.69,-39.413L-25.465,-39.413C-23.941,-39.413 -22.669,-40.511 -22.444,-42.037L18.926,-309.43C19.067,-310.348 18.799,-311.226 18.23,-311.92" style="fill:white;fill-rule:nonzero;"/>
            </g>
        </g>
    </g>
</svg>
