<?xml version="1.0" encoding="UTF-8" standalone="no"?>
<!DOCTYPE svg PUBLIC "-//W3C//DTD SVG 1.1//EN" "http://www.w3.org/Graphics/SVG/1.1/DTD/svg11.dtd">
<svg width="100%" height="100%" viewBox="0 0 2800 2800" version="1.1" xmlns="http://www.w3.org/2000/svg" xmlns:xlink="http://www.w3.org/1999/xlink" xml:space="preserve" xmlns:serif="http://www.serif.com/" style="fill-rule:evenodd;clip-rule:evenodd;stroke-linejoin:round;stroke-miterlimit:1.41421;">
    <g transform="matrix(1,0,0,1,-361.988,-444.373)">
        <g transform="matrix(6.69812,0,0,6.69812,-3843.66,-9476.07)">
            <circle cx="836.899" cy="1690.09" r="209.014" style="fill:rgb(210,160,42);"/>
        </g>
        <g transform="matrix(1,0,0,1,16.3708,-370.71)">
            <g transform="matrix(4.16667,0,0,4.16667,1482.99,2283.3)">
                <path d="M0,135.006L0,145.207C-0.009,145.277 -0.036,145.361 -0.036,145.436C-0.036,145.524 -0.009,145.603 0,145.678C0.106,148.201 2.166,150.213 4.706,150.261C4.737,150.261 4.764,150.278 4.799,150.278C4.833,150.278 4.878,150.261 4.917,150.261L124.589,150.261C124.62,150.261 124.654,150.278 124.689,150.278C124.725,150.278 124.76,150.261 124.795,150.261C127.41,150.213 129.497,148.086 129.515,145.471C129.515,145.462 129.532,145.453 129.532,145.436C129.532,145.436 129.515,145.418 129.515,145.401L129.515,133.857C196.883,111.773 247.35,57.173 258.449,-9.368C258.476,-9.51 258.493,-9.641 258.515,-9.765C258.555,-9.998 258.581,-10.209 258.581,-10.433C258.581,-13.11 256.424,-15.272 253.742,-15.272L-125.386,-15.272L-127.667,-15.272C-130.356,-15.272 -132.518,-13.11 -132.518,-10.433L-132.267,-8.258C-120.609,58.916 -68.755,113.821 0,135.006" style="fill:white;fill-rule:nonzero;"/>
            </g>
            <g transform="matrix(4.16667,0,0,4.16667,2022.17,2127.14)">
                <path d="M0,-140.58C-1.572,-138.343 -38.421,-85.292 0.823,-42.393C18.821,-22.705 17.258,-5.333 12.121,6.401L37.294,6.401C42.392,-10.923 40.288,-32.651 19.851,-54.98C-9.064,-86.591 20.221,-129.318 20.661,-129.978C24.113,-134.852 22.264,-141.135 16.576,-144.067C10.866,-146.981 3.465,-145.423 0,-140.58" style="fill:white;fill-rule:nonzero;"/>
            </g>
            <g transform="matrix(4.16667,0,0,4.16667,1756.53,1514.76)">
                <path d="M0,153.374L25.183,153.374C30.272,136.045 28.159,114.326 7.722,91.993C-21.203,60.377 8.061,17.673 8.523,16.972C11.958,12.121 10.139,5.847 4.429,2.906C-1.259,0 -8.673,1.545 -12.125,6.393C-13.706,8.621 -50.586,61.681 -11.306,104.58C6.691,124.272 5.124,141.649 0,153.374" style="fill:white;fill-rule:nonzero;"/>
            </g>
            <g transform="matrix(4.16667,0,0,4.16667,1389.8,2127.07)">
                <path d="M0,-140.563C-1.594,-138.326 -38.443,-85.275 0.811,-42.376C18.816,-22.679 17.258,-5.307 12.134,6.418L37.308,6.418C42.396,-10.898 40.292,-32.625 19.838,-54.963C-9.086,-86.574 20.199,-129.301 20.661,-129.979C24.082,-134.835 22.259,-141.118 16.549,-144.05C10.861,-146.981 3.452,-145.415 0,-140.563" style="fill:white;fill-rule:nonzero;"/>
            </g>
        </g>
    </g>
</svg>
