<?xml version="1.0" encoding="UTF-8" standalone="no"?>
<!DOCTYPE svg PUBLIC "-//W3C//DTD SVG 1.1//EN" "http://www.w3.org/Graphics/SVG/1.1/DTD/svg11.dtd">
<svg width="100%" height="100%" viewBox="0 0 2800 2800" version="1.1" xmlns="http://www.w3.org/2000/svg" xmlns:xlink="http://www.w3.org/1999/xlink" xml:space="preserve" xmlns:serif="http://www.serif.com/" style="fill-rule:evenodd;clip-rule:evenodd;stroke-linejoin:round;stroke-miterlimit:1.41421;">
    <g transform="matrix(1,0,0,1,-416.672,-478.034)">
        <g transform="matrix(7.77922,0,0,7.77922,-3963.25,-11545.7)">
            <circle cx="742.995" cy="1725.59" r="179.967" style="fill:rgb(239,64,42);"/>
        </g>
        <g transform="matrix(1,0,0,1,-70.9632,-347.453)">
            <g transform="matrix(4.16667,0,0,4.16667,1783.44,1980.19)">
                <path d="M0,117.74C-47.931,117.74 -86.916,78.742 -86.916,30.816C-86.916,-17.117 -47.931,-56.112 0,-56.112C47.936,-56.112 86.929,-17.117 86.929,30.816C86.929,78.742 47.936,117.74 0,117.74M166.937,-134.2L76.772,-134.2C76.156,-134.2 75.628,-133.688 75.628,-133.051L75.628,-103.089C75.628,-102.446 76.156,-101.935 76.772,-101.935L112.676,-101.935L72.811,-62.061C52.729,-77.838 27.463,-87.279 0,-87.279C-65.11,-87.279 -118.096,-34.303 -118.096,30.816C-118.096,90.77 -73.176,140.386 -15.242,147.892L-15.242,182.416L-50.806,182.416C-51.466,182.416 -51.969,182.927 -51.969,183.556L-51.969,215.671C-51.969,216.31 -51.466,216.818 -50.806,216.818L-15.242,216.818L-15.242,250.795C-15.242,251.429 -14.73,251.94 -14.097,251.94L18.002,251.94C18.641,251.94 19.164,251.429 19.164,250.795L19.164,216.818L54.724,216.818C55.358,216.818 55.868,216.31 55.868,215.671L55.868,183.556C55.868,182.927 55.358,182.416 54.724,182.416L19.164,182.416L19.164,147.33C75.196,138.139 118.091,89.407 118.091,30.816C118.091,5.541 110.091,-17.883 96.522,-37.11L135.82,-76.413L135.82,-42.879C135.82,-42.245 136.348,-41.735 136.981,-41.735L166.937,-41.735C167.58,-41.735 168.108,-42.245 168.108,-42.879L168.108,-133.051C168.108,-133.688 167.58,-134.2 166.937,-134.2" style="fill:white;fill-rule:nonzero;"/>
            </g>
            <g transform="matrix(4.16667,0,0,4.16667,2004.67,2074.92)">
                <path d="M0,-27.6L-105.433,-27.6C-106.066,-27.6 -106.577,-27.131 -106.577,-26.572L-106.577,-1.048C-106.577,-0.45 -106.066,0 -105.433,0L0,0C0.656,0 1.167,-0.45 1.167,-1.048L1.167,-26.572C1.167,-27.131 0.656,-27.6 0,-27.6" style="fill:white;fill-rule:nonzero;"/>
            </g>
            <g transform="matrix(4.16667,0,0,4.16667,2004.67,2264.89)">
                <path d="M0,-27.617L-105.433,-27.617C-106.066,-27.617 -106.577,-27.136 -106.577,-26.554L-106.577,-1.03C-106.577,-0.457 -106.066,0 -105.433,0L0,0C0.656,0 1.167,-0.457 1.167,-1.03L1.167,-26.554C1.167,-27.136 0.656,-27.617 0,-27.617" style="fill:white;fill-rule:nonzero;"/>
            </g>
        </g>
    </g>
</svg>
