<?xml version="1.0" encoding="UTF-8" standalone="no"?>
<!DOCTYPE svg PUBLIC "-//W3C//DTD SVG 1.1//EN" "http://www.w3.org/Graphics/SVG/1.1/DTD/svg11.dtd">
<svg width="100%" height="100%" viewBox="0 0 2800 2800" version="1.1" xmlns="http://www.w3.org/2000/svg" xmlns:xlink="http://www.w3.org/1999/xlink" xml:space="preserve" xmlns:serif="http://www.serif.com/" style="fill-rule:evenodd;clip-rule:evenodd;stroke-miterlimit:10;">
    <g transform="matrix(1,0,0,1,-411.555,-724.757)">
        <g transform="matrix(7.61403,0,0,7.61403,-2565.25,-12473.3)">
            <circle cx="574.835" cy="1917.26" r="183.871" style="fill:rgb(207,141,42);"/>
        </g>
        <g transform="matrix(4.16667,0,0,4.16667,2592.81,2527.81)">
            <path d="M0,-187.65C-32.042,-212.956 -74.491,-213.476 -90.032,-209.777L-91.838,-209.359C-109.791,-205.12 -138.311,-198.102 -171.691,-156.678C-171.877,-156.45 -172.07,-156.212 -172.246,-155.973L-172.669,-155.463C-172.995,-155.001 -173.223,-154.46 -173.223,-153.852C-173.223,-153.349 -173.101,-152.892 -172.862,-152.465L-172.088,-151.188C-167.896,-144.179 -162.613,-135.159 -158.149,-126.846C-158.105,-126.758 -158.061,-126.692 -158.026,-126.591C-157.55,-125.671 -156.6,-125.024 -155.481,-125.024C-154.707,-125.024 -154.011,-125.333 -153.509,-125.825C-153.298,-126.098 -153.086,-126.384 -152.901,-126.674C-123.271,-167.649 -99.974,-173.307 -84.213,-177.013L-82.328,-177.459C-74.147,-179.422 -43.048,-179.304 -20.595,-161.578C-3.072,-147.746 5.82,-125.732 5.82,-96.16C5.82,-46.552 -18.305,-27.146 -38.558,-19.603C-69.922,-7.879 -100,-23.553 -100.22,-23.672L-101.567,-24.328C-118.799,-31.808 -144.511,-47.371 -168.742,-96.042C-217.584,-194.135 -258.44,-203.372 -285.472,-209.496L-286.916,-209.817C-299.226,-212.608 -341.975,-214.581 -375.575,-187.76C-393.133,-173.755 -414.045,-146.526 -414.045,-96.358C-414.045,-65.791 -407.767,-45.61 -391.627,-24.377C-388.088,-19.538 -351.916,26.931 -281.985,13.53C-270.794,11.386 -255.631,6.041 -238.954,-6.458L-223.562,7.428C-222.559,8.339 -220.956,8.264 -220.032,7.252C-219.592,6.781 -219.406,6.178 -219.416,5.583L-219.416,5.376L-208.312,-62.925L-208.304,-63.682C-208.312,-64.347 -208.585,-65.025 -209.131,-65.501C-209.598,-65.945 -210.179,-66.118 -210.76,-66.118L-211.235,-66.073L-211.957,-65.999L-277.38,-47.684L-278.568,-47.49C-279.044,-47.389 -279.484,-47.141 -279.818,-46.759C-280.77,-45.72 -280.682,-44.134 -279.634,-43.211L-278.868,-42.502L-264.207,-29.263C-273.674,-23.134 -281.923,-20.322 -288.219,-19.102C-338.813,-9.452 -363.794,-42.589 -364.745,-43.888L-365.097,-44.373C-376.853,-59.808 -380.823,-72.923 -380.823,-96.358C-380.823,-126.019 -372.088,-148.041 -354.856,-161.803C-332.975,-179.264 -302.8,-179.364 -294.276,-177.423L-292.807,-177.093C-270.652,-172.079 -240.301,-165.215 -198.495,-81.236C-176.78,-37.636 -149.582,-9.129 -115.355,5.905C-110.997,8.127 -90.217,17.981 -63.247,17.981C-51.968,17.981 -39.614,16.259 -26.943,11.548C-7.105,4.144 39.043,-21.154 39.043,-96.16C39.043,-146.297 17.812,-173.585 0,-187.65" style="fill:white;fill-rule:nonzero;stroke:white;stroke-width:4.77px;"/>
        </g>
    </g>
</svg>
